<svg width="292" height="237" viewBox="0 0 292 237" fill="none" xmlns="http://www.w3.org/2000/svg">
<g filter="url(#filter0_di_202_23)">
<path d="M125.382 147.947L95.9329 193.07C95.3954 193.894 94.3419 194.204 93.4504 193.789C83.7874 189.291 31.617 164.081 13.5 136C-6.5 105 8.99979 83.5 14.5 78C20.0002 72.5 50 59.4999 84 94.9999C113.219 125.508 123.236 141.983 125.475 146.014C125.816 146.628 125.765 147.359 125.382 147.947Z" fill="#2D5872"/>
<path d="M125.382 147.947L95.9329 193.07C95.3954 193.894 94.3419 194.204 93.4504 193.789C83.7874 189.291 31.617 164.081 13.5 136C-6.5 105 8.99979 83.5 14.5 78C20.0002 72.5 50 59.4999 84 94.9999C113.219 125.508 123.236 141.983 125.475 146.014C125.816 146.628 125.765 147.359 125.382 147.947Z" stroke="black" stroke-width="6"/>
</g>
<path d="M5.5 120.5L9.2695 112.49C9.42045 112.169 9.65395 111.894 9.94608 111.693L16.7709 107.001C17.2353 106.682 17.5434 106.182 17.6195 105.623L18.8871 96.3282C18.9593 95.7983 19.2408 95.3194 19.6687 94.9985L28.3887 88.4585C28.7824 88.1632 29.0534 87.7332 29.1499 87.2507L32 73" stroke="black" stroke-width="6"/>
<path d="M64 79L53.0819 88.0193C52.7069 88.3291 52.4576 88.765 52.3808 89.2453L50.6321 100.174C50.5476 100.703 50.255 101.175 49.8197 101.486L40.8375 107.902C40.3119 108.277 40 108.883 40 109.529V118.181C40 118.981 39.5232 119.704 38.7878 120.019L33 122.5" stroke="black" stroke-width="6"/>
<path d="M37 159L45.8398 153.417C46.2643 153.149 46.5725 152.731 46.703 152.246L49.8182 140.675C49.9359 140.238 50.1985 139.854 50.563 139.585L58.8409 133.486C59.2633 133.174 59.5465 132.71 59.6294 132.192L61.3722 121.299C61.4542 120.786 61.732 120.326 62.1471 120.015L70.7928 113.53C71.2433 113.193 71.5304 112.681 71.5838 112.12L72.419 103.351C72.4707 102.807 72.7423 102.309 73.1707 101.971L82 95" stroke="black" stroke-width="6"/>
<path d="M56.5 173.5L67.814 165.486C68.2527 165.175 68.5479 164.701 68.6328 164.17L70.3572 153.392C70.448 152.825 70.7783 152.324 71.2641 152.017L79.2298 146.986C79.7191 146.677 80.0505 146.172 80.1385 145.6L81.8701 134.344C81.9531 133.805 82.2528 133.323 82.6999 133.01L91.4334 126.897C91.8005 126.64 92.0706 126.267 92.2006 125.838L97 110" stroke="black" stroke-width="6"/>
<path d="M19 143.5L25.3458 140.539C26.0499 140.21 26.5 139.503 26.5 138.726V133.5" stroke="black" stroke-width="6"/>
<path d="M10 112.236L6 119.736C6 119.736 8 126.236 11 131.236C14 136.236 19 142.236 19 142.236L26.5 139.736C26.5 139.736 24 130 26.5 126.236C29 122.471 40.5 119.736 40.5 119.736V108.236L51 100.736L53 88.2357L64 78.7356C64 78.7356 58.5 74.1972 50 72.2356C41.5 70.2741 33 71.2356 33 71.2356L30 87.2356L19.5 95.2356L18 106.236L10 112.236Z" fill="black" fill-opacity="0.2"/>
<path d="M46.5 153L38 160.5L57 173.5L69 164L72 152L80 146.5L82.5 133.5L92.5 126L98 110L83.5 94.5L73.5 102.5L72 112.5L61.5 120.5L60 132.5L50.5 140L46.5 153Z" fill="black" fill-opacity="0.2"/>
<path d="M89.5 179L79.5 186L95 194L126 146.5L116 132L112.5 141.5L103.5 146.5L101 159.5L91.5 165.5L89.5 179Z" fill="black" fill-opacity="0.2"/>
<path d="M78 186.5L88.3184 179.465C88.755 179.167 89.056 178.709 89.1558 178.19L91.3419 166.822C91.4431 166.296 91.7509 165.833 92.1965 165.536L99.8314 160.446C100.26 160.16 100.562 159.719 100.674 159.216L103.3 147.402C103.427 146.83 103.798 146.342 104.316 146.068L111.225 142.41C111.719 142.149 112.081 141.692 112.223 141.152L114.5 132.5" stroke="black" stroke-width="6"/>
<g filter="url(#filter1_di_202_23)">
<path d="M142.957 160.673L116.014 203.875C115.447 204.783 115.684 205.969 116.568 206.573C122.374 210.54 142.438 224.219 145 225.5C148 227 169 236 181 214.5C193 193 176.5 180 173.5 177.5C170.959 175.382 151.557 163.579 145.681 160.018C144.746 159.451 143.535 159.745 142.957 160.673Z" fill="#2D5872"/>
<path d="M142.957 160.673L116.014 203.875C115.447 204.783 115.684 205.969 116.568 206.573C122.374 210.54 142.438 224.219 145 225.5C148 227 169 236 181 214.5C193 193 176.5 180 173.5 177.5C170.959 175.382 151.557 163.579 145.681 160.018C144.746 159.451 143.535 159.745 142.957 160.673Z" stroke="black" stroke-width="6"/>
</g>
<path d="M144.5 159.5L115 205L129 214.5L137.5 207.5L139 197L148.5 189L150 178L159.5 169.5L144.5 159.5Z" fill="black" fill-opacity="0.2"/>
<path d="M153.5 220L147 225.5C147 225.5 153.345 229.286 159.5 228.5C168.101 227.401 173.5 226 180.5 216C187.478 206.032 185.978 199.549 184.019 191.082L184 191C182.76 185.639 178 181.5 178 181.5L169 188.5L166 200L156.5 208L153.5 220Z" fill="black" fill-opacity="0.2"/>
<path d="M130 213L136.777 208.03C137.237 207.693 137.531 207.175 137.585 206.607L138.416 197.88C138.47 197.319 138.757 196.807 139.207 196.47L147.865 189.976C148.273 189.67 148.549 189.221 148.636 188.719L150.381 178.685C150.458 178.241 150.682 177.837 151.018 177.537L160 169.5" stroke="black" stroke-width="6"/>
<path d="M145.5 225.5L153.393 219.464C153.784 219.165 154.051 218.733 154.143 218.25L155.868 209.193C155.953 208.744 156.19 208.339 156.537 208.043L165.493 200.431C165.822 200.151 166.052 199.772 166.148 199.351L168.349 189.666C168.447 189.234 168.686 188.847 169.027 188.566L177 182" stroke="black" stroke-width="6"/>
<g filter="url(#filter2_di_202_23)">
<path d="M256.666 131.762L209.799 151.252C208.798 151.668 208.311 152.806 208.701 153.818L221.442 186.85C221.481 186.95 221.52 187.035 221.576 187.125C222.564 188.707 233.178 204.656 256 198C279.09 191.265 273.024 166.019 272.53 164.114C272.508 164.03 272.483 163.96 272.449 163.88L259.276 132.828C258.846 131.816 257.681 131.34 256.666 131.762Z" fill="#2D5872"/>
<path d="M256.666 131.762L209.799 151.252C208.798 151.668 208.311 152.806 208.701 153.818L221.442 186.85C221.481 186.95 221.52 187.035 221.576 187.125C222.564 188.707 233.178 204.656 256 198C279.09 191.265 273.024 166.019 272.53 164.114C272.508 164.03 272.483 163.96 272.449 163.88L259.276 132.828C258.846 131.816 257.681 131.34 256.666 131.762Z" stroke="black" stroke-width="6"/>
</g>
<path d="M258 131.5L208 152.5L214.5 169.5L223 162L236.5 161L245.5 152.5H258L264 145L258 131.5Z" fill="black" fill-opacity="0.2"/>
<path d="M232 181L223 189C223 189 230.185 195.923 236 198C243.539 200.693 249 200.801 256.5 198C264.782 194.907 270.154 190.87 273 182.5C275.267 175.835 272 164.5 272 164.5L266 171L253.5 172L244 180.5L232 181Z" fill="black" fill-opacity="0.2"/>
<path d="M214.5 170.5L222.414 162.586C222.789 162.211 223.298 162 223.828 162H229" stroke="black" stroke-width="6"/>
<path d="M241 158.5L244.414 152.952C244.778 152.36 245.423 152 246.118 152H256.215C256.719 152 257.206 151.809 257.576 151.466L264 145.5" stroke="black" stroke-width="6"/>
<path d="M223 189.5L231.414 181.086C231.789 180.711 232.298 180.5 232.828 180.5H243.205C243.716 180.5 244.207 180.305 244.578 179.954L252.454 172.516C252.806 172.183 253.267 171.99 253.75 171.971L264.979 171.539C265.62 171.515 266.211 171.184 266.567 170.65L271 164" stroke="black" stroke-width="6"/>
<g filter="url(#filter3_di_202_23)">
<path d="M247.919 110.257L199.371 131.675C198.654 131.991 197.824 131.864 197.245 131.336C191.406 126.015 160.119 96.877 145.194 70.194C128.694 40.6941 140.194 14.0124 152.694 7.19413C165.194 0.375838 203.194 0.694031 225.694 47.194C244.482 86.0213 248.279 103.584 249.021 108.322C249.15 109.15 248.685 109.919 247.919 110.257Z" fill="#2D5872"/>
<path d="M247.919 110.257L199.371 131.675C198.654 131.991 197.824 131.864 197.245 131.336C191.406 126.015 160.119 96.877 145.194 70.194C128.694 40.6941 140.194 14.0124 152.694 7.19413C165.194 0.375838 203.194 0.694031 225.694 47.194C244.482 86.0213 248.279 103.584 249.021 108.322C249.15 109.15 248.685 109.919 247.919 110.257Z" stroke="black" stroke-width="6"/>
</g>
<path d="M155.5 26.5H139L136.5 42L140 60.5L152 50H166L174 42L185.5 41L195.5 33H207.5L212 25.5L193.5 10.5L184 12L176 19.5H164.5L155.5 26.5Z" fill="black" fill-opacity="0.2"/>
<path d="M163 73L152.5 80.5L163 95.5H184L193.5 86.5H206L214.5 78H225L235 68L225 47L217.5 56L204.5 55L196.5 64H185L175 73H163Z" fill="black" fill-opacity="0.2"/>
<path d="M193.5 119H184.5L199 132L249.5 108.5L244.5 93L235 101.5L224 100.5L214.5 109.5H202.5L193.5 119Z" fill="black" fill-opacity="0.2"/>
<path d="M138.5 27H155.207C155.716 27 156.207 26.8056 156.578 26.4564L163.922 19.5436C164.293 19.1944 164.784 19 165.293 19H176.131C176.685 19 177.215 18.7699 177.593 18.3646L183.552 11.9801C183.843 11.6682 184.226 11.4576 184.645 11.379L192 10" stroke="black" stroke-width="6"/>
<path d="M140.5 61L151.934 50.9948C152.299 50.6758 152.767 50.5 153.251 50.5H164.636C165.187 50.5 165.714 50.2723 166.092 49.8707L172.969 42.564C173.311 42.2011 173.775 41.9788 174.272 41.9406L185.828 41.0517C186.264 41.0182 186.677 40.8428 187.004 40.5524L194.932 33.5052C195.298 33.1798 195.771 33 196.26 33H206.805C207.541 33 208.218 32.596 208.566 31.9482L211.5 26.5" stroke="black" stroke-width="6"/>
<path d="M152 81L162.474 73.3825C162.816 73.1339 163.228 73 163.65 73H174.172C174.702 73 175.211 72.7893 175.586 72.4142L183.414 64.5858C183.789 64.2107 184.298 64 184.828 64H194.705C195.216 64 195.707 63.8047 196.078 63.454L203.922 56.046C204.293 55.6953 204.784 55.5 205.295 55.5H216.056C216.654 55.5 217.22 55.2327 217.6 54.7714L224 47" stroke="black" stroke-width="6"/>
<path d="M184.5 118.5H193.138C193.688 118.5 194.214 118.273 194.592 117.873L201.908 110.127C202.286 109.727 202.812 109.5 203.362 109.5H214.138C214.688 109.5 215.214 109.273 215.592 108.873L222.839 101.2C223.257 100.758 223.853 100.529 224.459 100.58L234.541 101.42C235.147 101.471 235.743 101.242 236.161 100.8L244 92.5" stroke="black" stroke-width="6"/>
<path d="M163.5 95.5H183.236C183.728 95.5 184.203 95.3186 184.569 94.9905L192.931 87.5095C193.297 87.1814 193.772 87 194.264 87H204.638C205.188 87 205.714 86.7733 206.092 86.3732L213.408 78.6268C213.786 78.2267 214.312 78 214.862 78H225.138C225.688 78 226.214 77.7733 226.592 77.3732L234.5 69" stroke="black" stroke-width="6"/>
<defs>
<filter id="filter0_di_202_23" x="-1.42511" y="68.0864" width="149.128" height="134.887" filterUnits="userSpaceOnUse" color-interpolation-filters="sRGB">
<feFlood flood-opacity="0" result="BackgroundImageFix"/>
<feColorMatrix in="SourceAlpha" type="matrix" values="0 0 0 0 0 0 0 0 0 0 0 0 0 0 0 0 0 0 127 0" result="hardAlpha"/>
<feOffset dx="17" dy="4"/>
<feGaussianBlur stdDeviation="1"/>
<feComposite in2="hardAlpha" operator="out"/>
<feColorMatrix type="matrix" values="0 0 0 0 0.752941 0 0 0 0 0.752941 0 0 0 0 0.752941 0 0 0 1 0"/>
<feBlend mode="normal" in2="BackgroundImageFix" result="effect1_dropShadow_202_23"/>
<feBlend mode="normal" in="SourceGraphic" in2="effect1_dropShadow_202_23" result="shape"/>
<feColorMatrix in="SourceAlpha" type="matrix" values="0 0 0 0 0 0 0 0 0 0 0 0 0 0 0 0 0 0 127 0" result="hardAlpha"/>
<feOffset dx="-9" dy="23"/>
<feGaussianBlur stdDeviation="1"/>
<feComposite in2="hardAlpha" operator="arithmetic" k2="-1" k3="1"/>
<feColorMatrix type="matrix" values="0 0 0 0 0.113725 0 0 0 0 0.282353 0 0 0 0 0.34902 0 0 0 1 0"/>
<feBlend mode="normal" in2="shape" result="effect2_innerShadow_202_23"/>
</filter>
<filter id="filter1_di_202_23" x="110.707" y="156.728" width="93.611" height="79.9135" filterUnits="userSpaceOnUse" color-interpolation-filters="sRGB">
<feFlood flood-opacity="0" result="BackgroundImageFix"/>
<feColorMatrix in="SourceAlpha" type="matrix" values="0 0 0 0 0 0 0 0 0 0 0 0 0 0 0 0 0 0 127 0" result="hardAlpha"/>
<feOffset dx="14" dy="3"/>
<feGaussianBlur stdDeviation="1"/>
<feComposite in2="hardAlpha" operator="out"/>
<feColorMatrix type="matrix" values="0 0 0 0 0.752941 0 0 0 0 0.752941 0 0 0 0 0.752941 0 0 0 1 0"/>
<feBlend mode="normal" in2="BackgroundImageFix" result="effect1_dropShadow_202_23"/>
<feBlend mode="normal" in="SourceGraphic" in2="effect1_dropShadow_202_23" result="shape"/>
<feColorMatrix in="SourceAlpha" type="matrix" values="0 0 0 0 0 0 0 0 0 0 0 0 0 0 0 0 0 0 127 0" result="hardAlpha"/>
<feOffset dx="-19" dy="12"/>
<feGaussianBlur stdDeviation="1"/>
<feComposite in2="hardAlpha" operator="arithmetic" k2="-1" k3="1"/>
<feColorMatrix type="matrix" values="0 0 0 0 0.113725 0 0 0 0 0.282353 0 0 0 0 0.34902 0 0 0 1 0"/>
<feBlend mode="normal" in2="shape" result="effect2_innerShadow_202_23"/>
</filter>
<filter id="filter2_di_202_23" x="203.566" y="128.608" width="88.043" height="80.0088" filterUnits="userSpaceOnUse" color-interpolation-filters="sRGB">
<feFlood flood-opacity="0" result="BackgroundImageFix"/>
<feColorMatrix in="SourceAlpha" type="matrix" values="0 0 0 0 0 0 0 0 0 0 0 0 0 0 0 0 0 0 127 0" result="hardAlpha"/>
<feOffset dx="13" dy="4"/>
<feGaussianBlur stdDeviation="1"/>
<feComposite in2="hardAlpha" operator="out"/>
<feColorMatrix type="matrix" values="0 0 0 0 0.752941 0 0 0 0 0.752941 0 0 0 0 0.752941 0 0 0 1 0"/>
<feBlend mode="normal" in2="BackgroundImageFix" result="effect1_dropShadow_202_23"/>
<feBlend mode="normal" in="SourceGraphic" in2="effect1_dropShadow_202_23" result="shape"/>
<feColorMatrix in="SourceAlpha" type="matrix" values="0 0 0 0 0 0 0 0 0 0 0 0 0 0 0 0 0 0 127 0" result="hardAlpha"/>
<feOffset dx="-19" dy="11"/>
<feGaussianBlur stdDeviation="1"/>
<feComposite in2="hardAlpha" operator="arithmetic" k2="-1" k3="1"/>
<feColorMatrix type="matrix" values="0 0 0 0 0.113725 0 0 0 0 0.282353 0 0 0 0 0.34902 0 0 0 1 0"/>
<feBlend mode="normal" in2="shape" result="effect2_innerShadow_202_23"/>
</filter>
<filter id="filter3_di_202_23" x="132" y="0.990799" width="138.044" height="142.855" filterUnits="userSpaceOnUse" color-interpolation-filters="sRGB">
<feFlood flood-opacity="0" result="BackgroundImageFix"/>
<feColorMatrix in="SourceAlpha" type="matrix" values="0 0 0 0 0 0 0 0 0 0 0 0 0 0 0 0 0 0 127 0" result="hardAlpha"/>
<feOffset dx="16" dy="7"/>
<feGaussianBlur stdDeviation="1"/>
<feComposite in2="hardAlpha" operator="out"/>
<feColorMatrix type="matrix" values="0 0 0 0 0 0 0 0 0 0 0 0 0 0 0 0 0 0 0.25 0"/>
<feBlend mode="normal" in2="BackgroundImageFix" result="effect1_dropShadow_202_23"/>
<feBlend mode="normal" in="SourceGraphic" in2="effect1_dropShadow_202_23" result="shape"/>
<feColorMatrix in="SourceAlpha" type="matrix" values="0 0 0 0 0 0 0 0 0 0 0 0 0 0 0 0 0 0 127 0" result="hardAlpha"/>
<feOffset dx="-16" dy="18"/>
<feGaussianBlur stdDeviation="1"/>
<feComposite in2="hardAlpha" operator="arithmetic" k2="-1" k3="1"/>
<feColorMatrix type="matrix" values="0 0 0 0 0.113725 0 0 0 0 0.282353 0 0 0 0 0.34902 0 0 0 1 0"/>
<feBlend mode="normal" in2="shape" result="effect2_innerShadow_202_23"/>
</filter>
</defs>
</svg>
