<svg width="18" height="18" viewBox="0 0 18 18" fill="none" xmlns="http://www.w3.org/2000/svg">
<path fill-rule="evenodd" clip-rule="evenodd" d="M9.00069 0.466553C6.68315 0.466553 6.3923 0.476686 5.48207 0.518109C4.57362 0.559709 3.95352 0.703533 3.41094 0.914557C2.84969 1.13252 2.37359 1.42407 1.89928 1.89857C1.42461 2.37288 1.13305 2.84898 0.91438 3.41005C0.702822 3.95281 0.55882 4.57308 0.517931 5.48118C0.47722 6.39141 0.466553 6.68244 0.466553 8.99997C0.466553 11.3175 0.476864 11.6075 0.518109 12.5177C0.559887 13.4262 0.703711 14.0462 0.914557 14.5888C1.13269 15.1501 1.42425 15.6262 1.89875 16.1005C2.37288 16.5752 2.84898 16.8674 3.40987 17.0854C3.95281 17.2964 4.57308 17.4402 5.48136 17.4818C6.39159 17.5233 6.68226 17.5334 8.99962 17.5334C11.3173 17.5334 11.6073 17.5233 12.5175 17.4818C13.426 17.4402 14.0468 17.2964 14.5897 17.0854C15.1508 16.8674 15.6262 16.5752 16.1003 16.1005C16.575 15.6262 16.8665 15.1501 17.0852 14.589C17.295 14.0462 17.439 13.426 17.4817 12.5179C17.5226 11.6076 17.5332 11.3175 17.5332 8.99997C17.5332 6.68244 17.5226 6.39159 17.4817 5.48136C17.439 4.57291 17.295 3.95281 17.0852 3.41023C16.8665 2.84898 16.575 2.37288 16.1003 1.89857C15.6256 1.4239 15.151 1.13234 14.5892 0.914557C14.0452 0.703533 13.4247 0.559709 12.5163 0.518109C11.606 0.476686 11.3163 0.466553 8.99802 0.466553H9.00069ZM8.23513 2.00432C8.46233 2.00397 8.71585 2.00432 9.00065 2.00432C11.2791 2.00432 11.5491 2.0125 12.4489 2.05339C13.2809 2.09143 13.7324 2.23046 14.0332 2.34726C14.4315 2.50193 14.7154 2.68682 15.0139 2.98549C15.3125 3.28416 15.4974 3.56861 15.6525 3.96683C15.7693 4.26728 15.9085 4.71884 15.9463 5.55085C15.9872 6.45041 15.9961 6.72064 15.9961 8.998C15.9961 11.2754 15.9872 11.5456 15.9463 12.4451C15.9083 13.2772 15.7693 13.7287 15.6525 14.0292C15.4978 14.4274 15.3125 14.7109 15.0139 15.0094C14.7152 15.3081 14.4316 15.493 14.0332 15.6477C13.7328 15.765 13.2809 15.9037 12.4489 15.9417C11.5493 15.9826 11.2791 15.9915 9.00065 15.9915C6.72205 15.9915 6.452 15.9826 5.55244 15.9417C4.72043 15.9033 4.26887 15.7643 3.96789 15.6475C3.56966 15.4928 3.28521 15.3079 2.98654 15.0093C2.68787 14.7106 2.50298 14.4269 2.34796 14.0284C2.23116 13.728 2.09196 13.2764 2.05409 12.4444C2.0132 11.5449 2.00502 11.2746 2.00502 8.99586C2.00502 6.71708 2.0132 6.44828 2.05409 5.54872C2.09213 4.71671 2.23116 4.26515 2.34796 3.96434C2.50263 3.56612 2.68787 3.28167 2.98654 2.983C3.28521 2.68433 3.56966 2.49944 3.96789 2.34441C4.26869 2.22708 4.72043 2.08841 5.55244 2.05019C6.33964 2.01463 6.64471 2.00397 8.23513 2.00219V2.00432ZM13.5557 3.42123C12.9904 3.42123 12.5317 3.87937 12.5317 4.44488C12.5317 5.01022 12.9904 5.4689 13.5557 5.4689C14.1211 5.4689 14.5797 5.01022 14.5797 4.44488C14.5797 3.87955 14.1211 3.42123 13.5557 3.42123ZM9.0007 4.61768C6.58059 4.61768 4.61843 6.57984 4.61843 8.99995C4.61843 11.4201 6.58059 13.3813 9.0007 13.3813C11.4208 13.3813 13.3823 11.4201 13.3823 8.99995C13.3823 6.57984 11.4208 4.61768 9.0007 4.61768ZM9.00067 6.15548C10.5715 6.15548 11.8451 7.42891 11.8451 8.99995C11.8451 10.5708 10.5715 11.8444 9.00067 11.8444C7.42963 11.8444 6.15619 10.5708 6.15619 8.99995C6.15619 7.42891 7.42963 6.15548 9.00067 6.15548Z" fill="currentColor"/>
</svg>
