<svg width="18" height="17" viewBox="0 0 18 17" fill="none" xmlns="http://www.w3.org/2000/svg">
<path d="M4.54597 1.8818C4.52244 0.813602 3.75857 0 2.51815 0C1.27774 0 0.466797 0.813602 0.466797 1.8818C0.466797 2.92787 1.25377 3.7649 2.47108 3.7649H2.49426C3.75857 3.7649 4.54597 2.92787 4.54597 1.8818Z" fill="currentColor"/>
<path d="M4.30716 5.25195H0.681213V16.1464H4.30716V5.25195Z" fill="currentColor"/>
<path d="M13.2089 4.99609C15.5949 4.99609 17.3837 6.55352 17.3837 9.89983L17.3836 16.1464H13.7578V10.3178C13.7578 8.85384 13.2331 7.85484 11.9205 7.85484C10.9187 7.85484 10.3221 8.52831 10.06 9.17878C9.96413 9.4119 9.94059 9.73671 9.94059 10.0623V16.1467H6.31421C6.31421 16.1467 6.362 6.27449 6.31421 5.25221H9.94059V6.79532C10.4218 6.05352 11.2838 4.99609 13.2089 4.99609Z" fill="currentColor"/>
</svg>
