<svg width="132" height="171" viewBox="0 0 132 171" fill="none" xmlns="http://www.w3.org/2000/svg">
<path d="M0.558105 29.0075C0.558105 29.0075 65.2394 63.8932 70.2726 62.71C74.2802 60.3676 72.214 54.0044 72.214 54.0044C72.214 54.0044 53.979 45.1411 41.9319 21.6276C40.2995 16.7873 34.5191 22.2258 34.5191 22.2258C34.5191 22.2258 17.7961 30.7254 13.1793 10.113C12.9054 6.71666 6.9169 13.4173 6.09083 14.7276C5.26475 16.0379 0.569061 25.2759 0.558105 29.0075Z" fill="black"/>
<path d="M1.06748 31.4551C1.06748 31.4551 -1.0974 37.3712 0.738804 38.9423C2.57501 40.5134 15.7133 45.3603 15.7133 45.3603L16.7059 44.1902C16.7059 44.1902 61.9668 65.7119 68.1701 65.5191C69.6381 64.4673 67.4031 63.7157 67.4031 63.7157C67.4031 63.7157 41.7664 54.125 23.1545 43.191C0.8637 30.8481 1.06748 31.4551 1.06748 31.4551Z" fill="black"/>
<path d="M38.2674 27.9206C39.175 27.9206 39.9108 27.1849 39.9108 26.2772C39.9108 25.3696 39.175 24.6339 38.2674 24.6339C37.3598 24.6339 36.624 25.3696 36.624 26.2772C36.624 27.1849 37.3598 27.9206 38.2674 27.9206Z" fill="white"/>
<path d="M41.3963 32.0203C42.3039 32.0203 43.0397 31.2845 43.0397 30.3769C43.0397 29.4693 42.3039 28.7336 41.3963 28.7336C40.4887 28.7336 39.7529 29.4693 39.7529 30.3769C39.7529 31.2845 40.4887 32.0203 41.3963 32.0203Z" fill="white"/>
<path d="M44.7156 36.5714C45.6233 36.5714 46.359 35.8357 46.359 34.9281C46.359 34.0205 45.6233 33.2847 44.7156 33.2847C43.808 33.2847 43.0723 34.0205 43.0723 34.9281C43.0723 35.8357 43.808 36.5714 44.7156 36.5714Z" fill="white"/>
<path d="M47.7288 41.1465C48.6364 41.1465 49.3722 40.4107 49.3722 39.5031C49.3722 38.5955 48.6364 37.8597 47.7288 37.8597C46.8212 37.8597 46.0854 38.5955 46.0854 39.5031C46.0854 40.4107 46.8212 41.1465 47.7288 41.1465Z" fill="white"/>
<path d="M119.89 47.7508C119.014 43.6358 114.046 20.074 92.0622 7.43314C70.3521 -5.05657 42.2042 -1.04671 25.4505 13.7875C14.5209 23.466 10.8682 35.6029 9.4549 40.5199C-6.06959 94.5543 56.3987 162.181 63.7961 170.018C81.3803 152.314 92.7021 135.553 99.7314 123.565C104.756 114.996 110.28 105.442 114.631 91.5743C118.983 77.7063 123.315 63.9019 119.89 47.7508ZM64.0152 99.4625C40.5389 99.4625 21.5064 80.43 21.5064 56.9537C21.5064 33.4775 40.5389 14.4449 64.0152 14.4449C87.4914 14.4449 106.524 33.4775 106.524 56.9537C106.524 80.43 87.4914 99.4625 64.0152 99.4625Z" fill="black"/>
<path d="M56.7835 89.8213C56.7835 89.8213 128.654 74.483 131.722 70.3198C133.256 65.9375 127.558 62.4316 127.558 62.4316C127.558 62.4316 107.921 67.491 83.5158 57.3919C79.1334 54.7625 78.257 62.6507 78.257 62.6507C78.257 62.6507 71.0261 79.961 54.154 67.2522C51.7437 64.8419 51.5246 73.8257 51.7437 75.3595C51.9629 76.8933 54.3732 86.9727 56.7835 89.8213Z" fill="black"/>
<path d="M58.7573 91.3552C58.7573 91.3552 60.9485 97.2714 63.3588 97.2714C65.7691 97.2714 78.9161 92.4508 78.9161 92.4508V90.917C78.9161 90.917 127.341 77.989 131.943 73.8258C132.381 72.0728 130.19 72.9493 130.19 72.9493C130.19 72.9493 104.443 82.2618 83.1889 85.9868C58.2095 91.0265 58.7573 91.3552 58.7573 91.3552Z" fill="black"/>
<path d="M83.7376 64.9516C84.6452 64.9516 85.381 64.2158 85.381 63.3082C85.381 62.4006 84.6452 61.6648 83.7376 61.6648C82.83 61.6648 82.0942 62.4006 82.0942 63.3082C82.0942 64.2158 82.83 64.9516 83.7376 64.9516Z" fill="white"/>
<path d="M88.7752 66.0471C89.6828 66.0471 90.4186 65.3113 90.4186 64.4037C90.4186 63.4961 89.6828 62.7603 88.7752 62.7603C87.8676 62.7603 87.1318 63.4961 87.1318 64.4037C87.1318 65.3113 87.8676 66.0471 88.7752 66.0471Z" fill="white"/>
<path d="M94.2537 67.3619C95.1613 67.3619 95.8971 66.6261 95.8971 65.7185C95.8971 64.8109 95.1613 64.0751 94.2537 64.0751C93.3461 64.0751 92.6104 64.8109 92.6104 65.7185C92.6104 66.6261 93.3461 67.3619 94.2537 67.3619Z" fill="white"/>
<path d="M99.5125 68.8956C100.42 68.8956 101.156 68.1598 101.156 67.2522C101.156 66.3446 100.42 65.6088 99.5125 65.6088C98.6049 65.6088 97.8691 66.3446 97.8691 67.2522C97.8691 68.1598 98.6049 68.8956 99.5125 68.8956Z" fill="white"/>
</svg>
