<svg xmlns="http://www.w3.org/2000/svg" viewBox="0 0 602.42 775.91"><defs><style>.cls-1{fill:#f6bf51;}.cls-2{fill:#fff;}.cls-3{fill:#ff5959;}.cls-4{fill:#f4cc3b;}</style></defs><title>Asset 1</title><g id="Layer_2" data-name="Layer 2"><g id="Layer_1-2" data-name="Layer 1"><path class="cls-1" d="M2.55,132.37S297.74,291.58,320.71,286.18c18.29-10.69,8.86-39.73,8.86-39.73S246.35,206,191.37,98.69c-7.45-22.09-33.83,2.73-33.83,2.73S81.22,140.21,60.15,46.14C58.9,30.64,31.57,61.22,27.8,67.2S2.6,115.34,2.55,132.37Z"/><path class="cls-1" d="M4.87,143.54s-9.88,27-1.5,34.17S71.71,207,71.71,207l4.53-5.34S282.8,299.88,311.11,299c6.7-4.8-3.5-8.23-3.5-8.23s-117-43.77-201.94-93.67C3.94,140.77,4.87,143.54,4.87,143.54Z"/><circle class="cls-2" cx="174.64" cy="119.91" r="7.5"/><circle class="cls-2" cx="188.92" cy="138.62" r="7.5"/><circle class="cls-2" cx="204.07" cy="159.39" r="7.5"/><circle class="cls-2" cx="217.82" cy="180.27" r="7.5"/><path class="cls-3" d="M547.15,217.91c-4-18.78-26.67-126.31-127-184-99.08-57-227.54-38.7-304,29-49.88,44.17-66.55,99.56-73,122-70.85,246.6,214.24,555.23,248,591,80.25-80.8,131.92-157.29,164-212,22.93-39.11,48.14-82.71,68-146S562.78,291.62,547.15,217.91Zm-255,236c-107.14,0-194-86.86-194-194s86.86-194,194-194,194,86.86,194,194S399.29,453.91,292.15,453.91Z"/><path class="cls-4" d="M259.15,409.91s328-70,342-89c7-20-19-36-19-36s-89.62,23.09-201-23c-20-12-24,24-24,24s-33,79-110,21c-11-11-12,30-11,37S248.15,396.91,259.15,409.91Z"/><path class="cls-4" d="M268.15,416.91s10,27,21,27,71-22,71-22v-7s221-59,242-78c2-8-8-4-8-4s-117.5,42.5-214.5,59.5C265.65,415.41,268.15,416.91,268.15,416.91Z"/><circle class="cls-2" cx="382.15" cy="288.91" r="7.5"/><circle class="cls-2" cx="405.15" cy="293.91" r="7.5"/><circle class="cls-2" cx="430.15" cy="299.91" r="7.5"/><circle class="cls-2" cx="454.15" cy="306.91" r="7.5"/></g></g></svg>