<svg width="134" height="172" viewBox="0 0 134 172" fill="none" xmlns="http://www.w3.org/2000/svg">
<path d="M0.564697 29.3456C0.564697 29.3456 65.9999 64.6379 71.0917 63.4409C75.1461 61.0712 73.0557 54.6339 73.0557 54.6339C73.0557 54.6339 54.6082 45.6673 42.4207 21.8797C40.7692 16.983 34.9216 22.4849 34.9216 22.4849C34.9216 22.4849 18.0036 31.0835 13.333 10.2309C13.0559 6.79495 6.9976 13.5737 6.1619 14.8993C5.3262 16.2249 0.575781 25.5705 0.564697 29.3456Z" fill="black"/>
<path d="M1.07992 31.8217C1.07992 31.8217 -1.11019 37.8068 0.747415 39.3962C2.60502 40.9856 15.8964 45.8889 15.8964 45.8889L16.9006 44.7052C16.9006 44.7052 62.6891 66.4778 68.9646 66.2827C70.4498 65.2187 68.1887 64.4584 68.1887 64.4584C68.1887 64.4584 42.2532 54.7558 23.4244 43.6944C0.873767 31.2076 1.07992 31.8217 1.07992 31.8217Z" fill="black"/>
<path d="M38.7136 28.246C39.6318 28.246 40.3761 27.5017 40.3761 26.5835C40.3761 25.6653 39.6318 24.921 38.7136 24.921C37.7954 24.921 37.051 25.6653 37.051 26.5835C37.051 27.5017 37.7954 28.246 38.7136 28.246Z" fill="white"/>
<path d="M41.8786 32.3935C42.7968 32.3935 43.5411 31.6492 43.5411 30.731C43.5411 29.8128 42.7968 29.0684 41.8786 29.0684C40.9604 29.0684 40.2161 29.8128 40.2161 30.731C40.2161 31.6492 40.9604 32.3935 41.8786 32.3935Z" fill="white"/>
<path d="M45.2368 36.9977C46.1549 36.9977 46.8993 36.2533 46.8993 35.3352C46.8993 34.417 46.1549 33.6726 45.2368 33.6726C44.3186 33.6726 43.5742 34.417 43.5742 35.3352C43.5742 36.2533 44.3186 36.9977 45.2368 36.9977Z" fill="white"/>
<path d="M48.2851 41.626C49.2033 41.626 49.9476 40.8817 49.9476 39.9635C49.9476 39.0453 49.2033 38.301 48.2851 38.301C47.3669 38.301 46.6226 39.0453 46.6226 39.9635C46.6226 40.8817 47.3669 41.626 48.2851 41.626Z" fill="white"/>
<path d="M91.9251 9.62459L91.9246 9.62433C70.8917 -2.47576 43.5477 1.4301 27.3568 15.7661M91.9251 9.62459L118.913 48.8131C122.227 64.4457 118.072 77.8264 113.651 91.9147C109.335 105.667 103.866 115.135 98.7993 123.778C92.005 135.365 81.1954 151.421 64.5874 168.488C58.7554 162.145 43.4576 144.743 30.4454 122.784C15.7336 97.9567 4.34163 67.966 11.8987 41.6629C13.3038 36.7746 16.8453 25.0742 27.3568 15.7661M91.9251 9.62459C113.168 21.8392 118.032 44.6779 118.912 48.8084L118.912 48.811L91.9251 9.62459ZM27.3568 15.7661L25.7472 13.9482M27.3568 15.7661L25.7472 13.9482M25.7472 13.9482C42.6962 -1.05891 71.1721 -5.1155 93.1354 7.51977L25.7472 13.9482ZM19.3292 57.6175C19.3292 82.7083 39.6706 103.05 64.7614 103.05C89.8522 103.05 110.194 82.7083 110.194 57.6175C110.194 32.5267 89.8522 12.1853 64.7614 12.1853C39.6706 12.1853 19.3292 32.5267 19.3292 57.6175Z" stroke="black" stroke-width="4.85595"/>
<path d="M57.4452 90.8682C57.4452 90.8682 130.154 75.3512 133.257 71.1394C134.809 66.706 129.045 63.1592 129.045 63.1592C129.045 63.1592 109.179 68.2776 84.4892 58.0608C80.0557 55.4007 79.1691 63.3809 79.1691 63.3809C79.1691 63.3809 71.8539 80.8929 54.7852 68.036C52.3468 65.5976 52.1251 74.6861 52.3468 76.2378C52.5685 77.7895 55.0069 87.9864 57.4452 90.8682Z" fill="black"/>
<path d="M59.4421 92.42C59.4421 92.42 61.6589 98.4051 64.0972 98.4051C66.5356 98.4051 79.8359 93.5283 79.8359 93.5283V91.9766C79.8359 91.9766 128.825 78.898 133.48 74.6862C133.924 72.9129 131.707 73.7996 131.707 73.7996C131.707 73.7996 105.661 83.2206 84.1585 86.989C58.888 92.0875 59.4421 92.42 59.4421 92.42Z" fill="black"/>
<path d="M84.7136 65.7087C85.6318 65.7087 86.3761 64.9643 86.3761 64.0461C86.3761 63.1279 85.6318 62.3836 84.7136 62.3836C83.7954 62.3836 83.051 63.1279 83.051 64.0461C83.051 64.9643 83.7954 65.7087 84.7136 65.7087Z" fill="white"/>
<path d="M89.81 66.8169C90.7282 66.8169 91.4725 66.0726 91.4725 65.1544C91.4725 64.2362 90.7282 63.4918 89.81 63.4918C88.8918 63.4918 88.1475 64.2362 88.1475 65.1544C88.1475 66.0726 88.8918 66.8169 89.81 66.8169Z" fill="white"/>
<path d="M95.3525 68.147C96.2707 68.147 97.015 67.4027 97.015 66.4845C97.015 65.5663 96.2707 64.8219 95.3525 64.8219C94.4343 64.8219 93.6899 65.5663 93.6899 66.4845C93.6899 67.4027 94.4343 68.147 95.3525 68.147Z" fill="white"/>
<path d="M100.672 69.6985C101.59 69.6985 102.335 68.9542 102.335 68.036C102.335 67.1178 101.59 66.3735 100.672 66.3735C99.7541 66.3735 99.0098 67.1178 99.0098 68.036C99.0098 68.9542 99.7541 69.6985 100.672 69.6985Z" fill="white"/>
</svg>
