<svg version="1.1" id="Layer_1" xmlns="http://www.w3.org/2000/svg" xmlns:xlink="http://www.w3.org/1999/xlink" x="0px" y="0px"
	 width="100%" viewBox="0 0 268 388" enable-background="new 0 0 268 388" xml:space="preserve">
<path fill="#000000" opacity="0" stroke="none" 
	d="
M269.000000,151.000000 
	C269.000000,230.666656 269.000000,309.833313 269.000000,389.000000 
	C179.666702,389.000000 90.333397,389.000000 1.000068,389.000000 
	C1.000045,259.666718 1.000045,130.333435 1.000023,1.000120 
	C90.333260,1.000080 179.666519,1.000080 268.999878,1.000040 
	C269.000000,50.833332 269.000000,100.666664 269.000000,151.000000 
M53.403484,168.332458 
	C50.939735,173.181503 51.714428,175.155899 56.978432,179.488953 
	C67.680214,188.298126 78.264618,197.249924 88.920799,206.888535 
	C84.939919,217.613266 80.995277,228.351608 76.970474,239.059830 
	C68.970161,260.345154 60.923477,281.612976 52.902184,302.890411 
	C51.855221,305.667633 51.109081,308.565216 54.288383,310.395386 
	C57.767723,312.398285 59.508572,309.494781 61.082302,307.261719 
	C66.340630,299.800354 71.322334,292.142975 76.628334,284.716705 
	C80.232277,279.672546 84.202095,274.889862 87.965797,270.757050 
	C83.298370,283.882782 78.620064,297.004700 73.968063,310.135895 
	C71.641869,316.702118 69.074768,323.207123 67.258453,329.913605 
	C66.779152,331.683380 68.684425,334.098969 69.494728,336.217987 
	C71.320457,335.294495 73.810966,334.848267 74.869499,333.373962 
	C85.970322,317.912720 96.834579,302.281708 107.779190,286.708160 
	C117.188957,273.318634 126.618095,259.942688 136.456161,245.967682 
	C144.406204,252.552917 152.133270,258.941193 159.846771,265.345795 
	C169.635574,273.473511 179.341888,281.702728 189.228271,289.709778 
	C193.682083,293.316925 196.544693,292.092834 196.899078,286.419159 
	C197.474258,277.210205 197.879822,267.979034 197.965729,258.753601 
	C198.128815,241.237701 194.032257,224.582474 187.374756,208.454956 
	C186.477005,206.280182 185.815231,203.348557 186.524216,201.272949 
	C192.894592,182.623352 199.597534,164.087387 206.199066,145.516708 
	C207.360214,142.250290 209.702881,140.788666 213.070328,139.919281 
	C223.293228,137.279938 232.929993,133.477005 240.259415,125.249908 
	C244.832260,120.117004 245.034943,118.443085 240.125244,113.678955 
	C238.815430,112.407967 237.333862,111.316002 235.978699,110.089317 
	C231.928589,106.423187 227.902054,102.731010 224.226730,98.461098 
	C225.477646,97.124199 226.800049,95.846573 227.966675,94.439789 
	C232.207321,89.326241 232.139923,86.975822 227.138550,82.717163 
	C220.828094,77.343803 214.305298,72.220535 207.907791,66.948517 
	C195.494965,56.719437 183.114700,46.450851 170.702957,36.220478 
	C164.050980,30.737589 157.476624,25.150463 150.645721,19.898478 
	C146.574921,16.768602 144.771072,17.557264 143.037613,22.421848 
	C142.703201,23.360266 142.383423,24.311544 142.159851,25.280643 
	C139.203262,38.096226 139.765625,50.916828 141.596542,63.843472 
	C142.043854,67.001572 141.014725,70.696724 139.673080,73.702446 
	C137.723495,78.070152 135.164932,82.246567 132.353683,86.134026 
	C123.904480,97.817772 115.245201,109.350853 106.550392,120.853912 
	C105.634354,122.065819 104.002090,123.329033 102.593979,123.467300 
	C98.018257,123.916626 93.365639,123.584251 88.790306,124.035881 
	C69.826538,125.907776 54.045654,134.613205 40.277985,147.313614 
	C36.800037,150.521942 37.156307,153.215561 40.883785,156.503174 
	C45.228859,160.335510 49.636631,164.096756 53.403484,168.332458 
z"/>
<path fill="#2C571F" opacity="0.2" stroke="none" 
	d="
M223.866333,99.049004 
	C227.902054,102.731010 231.928589,106.423187 235.978699,110.089317 
	C237.333862,111.316002 238.815430,112.407967 240.125244,113.678955 
	C245.034943,118.443085 244.832260,120.117004 240.259415,125.249908 
	C232.929993,133.477005 223.293228,137.279938 213.070328,139.919281 
	C209.702881,140.788666 207.360214,142.250290 206.199066,145.516708 
	C199.597534,164.087387 192.894592,182.623352 186.524216,201.272949 
	C185.815231,203.348557 186.477005,206.280182 187.374756,208.454956 
	C194.032257,224.582474 198.128815,241.237701 197.965729,258.753601 
	C197.879822,267.979034 197.474258,277.210205 196.899078,286.419159 
	C196.544693,292.092834 193.682083,293.316925 189.228271,289.709778 
	C179.341888,281.702728 169.635574,273.473511 159.846771,265.345795 
	C152.133270,258.941193 144.406204,252.552917 136.456161,245.967682 
	C126.618095,259.942688 117.188957,273.318634 107.779190,286.708160 
	C96.834579,302.281708 85.970322,317.912720 74.869499,333.373962 
	C73.810966,334.848267 71.320457,335.294495 69.494728,336.217987 
	C68.684425,334.098969 66.779152,331.683380 67.258453,329.913605 
	C69.074768,323.207123 71.641869,316.702118 73.968063,310.135895 
	C78.620064,297.004700 83.298370,283.882782 87.971527,270.379578 
	C87.977257,270.002106 87.992630,270.033905 88.231247,269.859741 
	C88.616486,269.127686 88.763107,268.569824 89.069756,267.699463 
	C99.310226,252.221863 109.390678,237.056732 119.618591,221.669754 
	C137.274597,236.066376 154.015900,249.724991 170.767548,263.370911 
	C174.986359,266.807587 178.015808,265.737732 178.815582,260.284882 
	C179.730484,254.047134 180.646530,247.771545 180.918930,241.484543 
	C181.784729,221.502182 179.099594,202.022247 172.327286,183.102798 
	C171.214645,179.994461 170.627701,175.902054 171.687775,172.941071 
	C178.579254,153.691925 185.949539,134.612946 193.318024,115.538109 
	C193.913086,113.997643 195.430328,112.415443 196.925598,111.686035 
	C205.839523,107.337738 214.872986,103.234497 223.866333,99.049004 
z"/>
<path fill="#132E3B" opacity="1.000000" stroke="none" 
	d="
M224.046539,98.755051 
	C214.872986,103.234497 205.839523,107.337738 196.925598,111.686035 
	C195.430328,112.415443 193.913086,113.997643 193.318024,115.538109 
	C185.949539,134.612946 178.579254,153.691925 171.687775,172.941071 
	C170.627701,175.902054 171.214645,179.994461 172.327286,183.102798 
	C179.099594,202.022247 181.784729,221.502182 180.918930,241.484543 
	C180.646530,247.771545 179.730484,254.047134 178.815582,260.284882 
	C178.015808,265.737732 174.986359,266.807587 170.767548,263.370911 
	C154.015900,249.724991 137.274597,236.066376 119.618591,221.669754 
	C109.390678,237.056732 99.310226,252.221863 88.847153,267.889801 
	C88.307236,268.939697 88.149933,269.486816 87.992630,270.033905 
	C87.992630,270.033905 87.977257,270.002106 87.992767,269.996155 
	C84.202095,274.889862 80.232277,279.672546 76.628334,284.716705 
	C71.322334,292.142975 66.340630,299.800354 61.082302,307.261719 
	C59.508572,309.494781 57.767723,312.398285 54.288383,310.395386 
	C51.109081,308.565216 51.855221,305.667633 52.902184,302.890411 
	C60.923477,281.612976 68.970161,260.345154 76.970474,239.059830 
	C80.995277,228.351608 84.939919,217.613266 89.176620,206.267578 
	C90.580772,202.811234 93.680824,200.197433 89.726532,197.011505 
	C77.766098,187.375092 65.912453,177.606140 54.017189,167.888840 
	C49.636631,164.096756 45.228859,160.335510 40.883785,156.503174 
	C37.156307,153.215561 36.800037,150.521942 40.277985,147.313614 
	C54.045654,134.613205 69.826538,125.907776 88.790306,124.035881 
	C93.365639,123.584251 98.018257,123.916626 102.593979,123.467300 
	C104.002090,123.329033 105.634354,122.065819 106.550392,120.853912 
	C115.245201,109.350853 123.904480,97.817772 132.353683,86.134026 
	C135.164932,82.246567 137.723495,78.070152 139.673080,73.702446 
	C141.014725,70.696724 142.043854,67.001572 141.596542,63.843472 
	C139.765625,50.916828 139.203262,38.096226 142.159851,25.280643 
	C142.383423,24.311544 142.703201,23.360266 143.037613,22.421848 
	C144.771072,17.557264 146.574921,16.768602 150.645721,19.898478 
	C157.476624,25.150463 164.050980,30.737589 170.702957,36.220478 
	C183.114700,46.450851 195.494965,56.719437 207.907791,66.948517 
	C214.305298,72.220535 220.828094,77.343803 227.138550,82.717163 
	C232.139923,86.975822 232.207321,89.326241 227.966675,94.439789 
	C226.800049,95.846573 225.477646,97.124199 224.046539,98.755051 
M72.255981,171.736145 
	C77.368172,175.869415 82.480362,180.002701 87.977867,184.713562 
	C115.673134,207.550735 143.368393,230.387909 171.602875,253.669693 
	C172.108307,251.089630 172.613861,249.369232 172.762680,247.618515 
	C174.591537,226.104187 172.608047,205.107986 165.042603,184.677261 
	C163.529617,180.591385 163.053345,175.422470 164.057571,171.221054 
	C169.221497,149.616364 177.759842,129.199539 187.273544,109.177689 
	C189.116074,105.300041 191.957275,103.166313 196.227203,102.100876 
	C205.523453,99.781273 213.982376,95.675301 221.177872,88.530121 
	C205.900330,76.126183 190.919983,63.963547 175.656616,51.230465 
	C171.813400,48.165787 167.970184,45.101112 163.788834,41.442997 
	C159.115967,37.610497 154.443085,33.777996 149.291168,29.552593 
	C147.025101,42.162476 147.948349,53.698448 149.506668,65.284767 
	C149.928162,68.418648 149.915131,72.229416 148.511749,74.891350 
	C138.328537,94.206894 126.106369,112.188583 111.716438,128.649445 
	C108.944878,131.819901 105.591133,133.015976 101.121605,132.839233 
	C95.204369,132.605270 89.116821,133.007874 83.318092,134.192398 
	C70.265137,136.858795 58.842270,143.009430 48.241520,152.228806 
	C56.452213,158.784805 64.197342,164.969070 72.255981,171.736145 
M76.002098,270.603333 
	C88.481659,252.614395 100.961220,234.625443 113.681725,216.289185 
	C108.810371,212.267426 104.139648,208.411285 98.947937,204.125031 
	C90.252838,227.004547 81.763664,249.342224 73.013481,272.366699 
	C74.265945,271.793640 74.921127,271.493866 76.002098,270.603333 
z"/>
<path fill="#2B571F" opacity="1.000000" stroke="none" 
	d="
M53.710335,168.110657 
	C65.912453,177.606140 77.766098,187.375092 89.726532,197.011505 
	C93.680824,200.197433 90.580772,202.811234 89.164925,205.894775 
	C78.264618,197.249924 67.680214,188.298126 56.978432,179.488953 
	C51.714428,175.155899 50.939735,173.181503 53.710335,168.110657 
z"/>
<path fill="#000000" opacity="1.000000" stroke="none" 
	d="
M88.231247,269.859741 
	C88.149933,269.486816 88.307236,268.939697 88.687134,268.202271 
	C88.763107,268.569824 88.616486,269.127686 88.231247,269.859741 
z"/>
<path fill="#F32222" opacity="1.000000" stroke="none" 
	d="
M175.939636,51.800911 
	C190.919983,63.963547 205.900330,76.126183 221.177872,88.530121 
	C213.982376,95.675301 205.523453,99.781273 196.227203,102.100876 
	C191.957275,103.166313 189.116074,105.300041 187.273544,109.177689 
	C177.759842,129.199539 169.221497,149.616364 164.057571,171.221054 
	C163.053345,175.422470 163.529617,180.591385 165.042603,184.677261 
	C172.608047,205.107986 174.591537,226.104187 172.762680,247.618515 
	C172.613861,249.369232 172.108307,251.089630 171.602875,253.669693 
	C143.368393,230.387909 115.673134,207.550735 87.947685,184.095032 
	C90.086281,180.121231 92.046875,176.607086 94.463058,173.440567 
	C101.580185,164.113235 109.140518,155.137970 120.711479,151.146408 
	C124.162514,149.955933 126.235168,147.959488 127.952698,144.937515 
	C138.157776,126.981735 148.478516,109.091721 158.748993,91.173073 
	C162.546524,84.547600 165.867706,77.924057 167.491959,70.168709 
	C168.838715,63.738415 173.016220,57.900990 175.939636,51.800911 
z"/>
<path fill="#F12323" opacity="1.000000" stroke="none" 
	d="
M71.942474,171.153336 
	C64.197342,164.969070 56.452213,158.784805 48.241520,152.228806 
	C58.842270,143.009430 70.265137,136.858795 83.318092,134.192398 
	C89.116821,133.007874 95.204369,132.605270 101.121605,132.839233 
	C105.591133,133.015976 108.944878,131.819901 111.716438,128.649445 
	C126.106369,112.188583 138.328537,94.206894 148.511749,74.891350 
	C149.915131,72.229416 149.928162,68.418648 149.506668,65.284767 
	C147.948349,53.698448 147.025101,42.162476 149.291168,29.552593 
	C154.443085,33.777996 159.115967,37.610497 163.798645,42.061783 
	C158.732224,51.849335 157.765305,61.497433 160.096558,71.659286 
	C160.533325,73.563171 160.505127,76.136917 159.551773,77.711441 
	C146.716812,98.909172 133.703629,119.999344 120.632652,141.052887 
	C119.859444,142.298294 118.291389,143.721390 116.970970,143.855133 
	C97.592667,145.818222 83.121681,155.739166 71.942474,171.153336 
z"/>
<path fill="#FE7474" opacity="1.000000" stroke="none" 
	d="
M72.099228,171.444733 
	C83.121681,155.739166 97.592667,145.818222 116.970970,143.855133 
	C118.291389,143.721390 119.859444,142.298294 120.632652,141.052887 
	C133.703629,119.999344 146.716812,98.909172 159.551773,77.711441 
	C160.505127,76.136917 160.533325,73.563171 160.096558,71.659286 
	C157.765305,61.497433 158.732224,51.849335 163.967712,42.358505 
	C167.970184,45.101112 171.813400,48.165787 175.798126,51.515686 
	C173.016220,57.900990 168.838715,63.738415 167.491959,70.168709 
	C165.867706,77.924057 162.546524,84.547600 158.748993,91.173073 
	C148.478516,109.091721 138.157776,126.981735 127.952698,144.937515 
	C126.235168,147.959488 124.162514,149.955933 120.711479,151.146408 
	C109.140518,155.137970 101.580185,164.113235 94.463058,173.440567 
	C92.046875,176.607086 90.086281,180.121231 87.755020,183.806244 
	C82.480362,180.002701 77.368172,175.869415 72.099228,171.444733 
z"/>
<path fill="#E2E2E3" opacity="1.000000" stroke="none" 
	d="
M75.789207,270.898712 
	C74.921127,271.493866 74.265945,271.793640 73.013481,272.366699 
	C81.763664,249.342224 90.252838,227.004547 98.947937,204.125031 
	C104.139648,208.411285 108.810371,212.267426 113.681725,216.289185 
	C100.961220,234.625443 88.481659,252.614395 75.789207,270.898712 
z"/>
</svg>