<svg width="242" aria-label="WalkingPal" height="53" viewBox="0 0 242 53" fill="none" xmlns="http://www.w3.org/2000/svg">
<path d="M6.11719 3.8125L15.5391 28L25.3828 2.05469L34.8047 28L44.8125 3.8125H50.7422L34.5703 42.2969L25.2656 16.6562L15.5625 42.3203L0.1875 3.8125H6.11719ZM68.2031 17.1719H73.5V40H68.2031V37.6094C66.0312 39.6406 63.6953 40.6562 61.1953 40.6562C58.0391 40.6562 55.4297 39.5156 53.3672 37.2344C51.3203 34.9062 50.2969 32 50.2969 28.5156C50.2969 25.0938 51.3203 22.2422 53.3672 19.9609C55.4141 17.6797 57.9766 16.5391 61.0547 16.5391C63.7109 16.5391 66.0938 17.6328 68.2031 19.8203V17.1719ZM55.6875 28.5156C55.6875 30.7031 56.2734 32.4844 57.4453 33.8594C58.6484 35.25 60.1641 35.9453 61.9922 35.9453C63.9453 35.9453 65.5234 35.2734 66.7266 33.9297C67.9297 32.5391 68.5312 30.7734 68.5312 28.6328C68.5312 26.4922 67.9297 24.7266 66.7266 23.3359C65.5234 21.9766 63.9609 21.2969 62.0391 21.2969C60.2266 21.2969 58.7109 21.9844 57.4922 23.3594C56.2891 24.75 55.6875 26.4688 55.6875 28.5156ZM85.4297 0.414062V40H80.1562V0.414062H85.4297ZM97.3828 0.414062V24.5547L104.812 17.1719H111.891L101.977 26.7578L112.617 40H105.773L98.2266 30.3672L97.3828 31.2109V40H92.1094V0.414062H97.3828ZM121.289 17.1719V40H116.016V17.1719H121.289ZM115.219 7.67969C115.219 6.75781 115.555 5.96094 116.227 5.28906C116.898 4.61719 117.703 4.28125 118.641 4.28125C119.594 4.28125 120.406 4.61719 121.078 5.28906C121.75 5.94531 122.086 6.75 122.086 7.70312C122.086 8.65625 121.75 9.46875 121.078 10.1406C120.422 10.8125 119.617 11.1484 118.664 11.1484C117.711 11.1484 116.898 10.8125 116.227 10.1406C115.555 9.46875 115.219 8.64844 115.219 7.67969ZM127.969 17.1719H133.266V19.2812C135.109 17.4531 137.188 16.5391 139.5 16.5391C142.156 16.5391 144.227 17.375 145.711 19.0469C146.992 20.4688 147.633 22.7891 147.633 26.0078V40H142.336V27.25C142.336 25 142.023 23.4453 141.398 22.5859C140.789 21.7109 139.68 21.2734 138.07 21.2734C136.32 21.2734 135.078 21.8516 134.344 23.0078C133.625 24.1484 133.266 26.1406 133.266 28.9844V40H127.969V17.1719ZM176.391 39.4609C176.391 40.5391 176.352 41.4844 176.273 42.2969C176.211 43.125 176.117 43.8516 175.992 44.4766C175.617 46.1953 174.883 47.6719 173.789 48.9062C171.727 51.2812 168.891 52.4688 165.281 52.4688C162.234 52.4688 159.727 51.6484 157.758 50.0078C155.727 48.3203 154.555 45.9844 154.242 43H159.539C159.742 44.125 160.078 44.9922 160.547 45.6016C161.641 47.0234 163.234 47.7344 165.328 47.7344C169.188 47.7344 171.117 45.3672 171.117 40.6328V37.4453C169.023 39.5859 166.609 40.6562 163.875 40.6562C160.766 40.6562 158.219 39.5312 156.234 37.2812C154.234 35 153.234 32.1484 153.234 28.7266C153.234 25.3984 154.164 22.5703 156.023 20.2422C158.023 17.7734 160.664 16.5391 163.945 16.5391C166.82 16.5391 169.211 17.6094 171.117 19.75V17.1719H176.391V39.4609ZM171.328 28.6328C171.328 26.4141 170.734 24.6406 169.547 23.3125C168.344 21.9531 166.805 21.2734 164.93 21.2734C162.93 21.2734 161.352 22.0156 160.195 23.5C159.148 24.8281 158.625 26.5469 158.625 28.6562C158.625 30.7344 159.148 32.4375 160.195 33.7656C161.336 35.2188 162.914 35.9453 164.93 35.9453C166.945 35.9453 168.539 35.2109 169.711 33.7422C170.789 32.4141 171.328 30.7109 171.328 28.6328ZM189.516 25.3047V40H184.055V3.8125H190.242C193.273 3.8125 195.562 4.02344 197.109 4.44531C198.672 4.86719 200.047 5.66406 201.234 6.83594C203.312 8.86719 204.352 11.4297 204.352 14.5234C204.352 17.8359 203.242 20.4609 201.023 22.3984C198.805 24.3359 195.812 25.3047 192.047 25.3047H189.516ZM189.516 20.2422H191.555C196.57 20.2422 199.078 18.3125 199.078 14.4531C199.078 10.7188 196.492 8.85156 191.32 8.85156H189.516V20.2422ZM224.484 17.1719H229.781V40H224.484V37.6094C222.312 39.6406 219.977 40.6562 217.477 40.6562C214.32 40.6562 211.711 39.5156 209.648 37.2344C207.602 34.9062 206.578 32 206.578 28.5156C206.578 25.0938 207.602 22.2422 209.648 19.9609C211.695 17.6797 214.258 16.5391 217.336 16.5391C219.992 16.5391 222.375 17.6328 224.484 19.8203V17.1719ZM211.969 28.5156C211.969 30.7031 212.555 32.4844 213.727 33.8594C214.93 35.25 216.445 35.9453 218.273 35.9453C220.227 35.9453 221.805 35.2734 223.008 33.9297C224.211 32.5391 224.812 30.7734 224.812 28.6328C224.812 26.4922 224.211 24.7266 223.008 23.3359C221.805 21.9766 220.242 21.2969 218.32 21.2969C216.508 21.2969 214.992 21.9844 213.773 23.3594C212.57 24.75 211.969 26.4688 211.969 28.5156ZM241.711 0.414062V40H236.438V0.414062H241.711Z" fill="currentColor"/>
</svg>
