<svg width="18" height="13" viewBox="0 0 18 13" fill="none" xmlns="http://www.w3.org/2000/svg">
<path fill-rule="evenodd" clip-rule="evenodd" d="M15.6679 0.49952C16.4022 0.70103 16.9805 1.29478 17.1768 2.04878C17.5335 3.41533 17.5335 6.26663 17.5335 6.26663C17.5335 6.26663 17.5335 9.11784 17.1768 10.4845C16.9805 11.2385 16.4022 11.8322 15.6679 12.0338C14.3371 12.4 9.00013 12.4 9.00013 12.4C9.00013 12.4 3.66321 12.4 2.3323 12.0338C1.59795 11.8322 1.01962 11.2385 0.823354 10.4845C0.466797 9.11784 0.466797 6.26663 0.466797 6.26663C0.466797 6.26663 0.466797 3.41533 0.823354 2.04878C1.01962 1.29478 1.59795 0.70103 2.3323 0.49952C3.66321 0.133301 9.00013 0.133301 9.00013 0.133301C9.00013 0.133301 14.3371 0.133301 15.6679 0.49952ZM7.40015 3.86658V9.19991L11.6668 6.53335L7.40015 3.86658Z" fill="currentColor"/>
</svg>
