<?xml version="1.0" encoding="UTF-8"?>
<!DOCTYPE svg PUBLIC "-//W3C//DTD SVG 1.1//EN" "http://www.w3.org/Graphics/SVG/1.1/DTD/svg11.dtd">
<!-- Creator: CorelDRAW -->
<svg xmlns="http://www.w3.org/2000/svg" xml:space="preserve" width="210mm" height="297mm" version="1.1" style="shape-rendering:geometricPrecision; text-rendering:geometricPrecision; image-rendering:optimizeQuality; fill-rule:evenodd; clip-rule:evenodd"
viewBox="0 0 21000 29700"
 xmlns:xlink="http://www.w3.org/1999/xlink"
 xmlns:xodm="http://www.corel.com/coreldraw/odm/2003">
 <defs>
  <style type="text/css">
   <![CDATA[
    .fil33 {fill:#050302}
    .fil13 {fill:#05A4EA}
    .fil14 {fill:#30CEFF}
    .fil8 {fill:#366634}
    .fil20 {fill:#3C5466}
    .fil5 {fill:#406F93}
    .fil36 {fill:#4B3422}
    .fil23 {fill:#4BBAA5}
    .fil10 {fill:#628C1B}
    .fil27 {fill:#677346}
    .fil4 {fill:#76B5B5}
    .fil30 {fill:#7A4922}
    .fil37 {fill:#814242}
    .fil18 {fill:#85E8FF}
    .fil26 {fill:#868564}
    .fil7 {fill:#88AB00}
    .fil34 {fill:#956746}
    .fil6 {fill:#9AC33A}
    .fil28 {fill:#9D622F}
    .fil17 {fill:#A15D28}
    .fil9 {fill:#AF353C}
    .fil11 {fill:#B4D36A}
    .fil35 {fill:#BD8A57}
    .fil29 {fill:#CCAA67}
    .fil22 {fill:#D6BEBE}
    .fil1 {fill:#D85C6E}
    .fil3 {fill:#D93543}
    .fil15 {fill:#E6F5F5}
    .fil2 {fill:#E9AD5D}
    .fil12 {fill:#F1691A}
    .fil21 {fill:#F2725D}
    .fil19 {fill:#F3C405}
    .fil31 {fill:#F4CC7B}
    .fil25 {fill:#F6A89E}
    .fil32 {fill:#F84517}
    .fil16 {fill:#FB9901}
    .fil24 {fill:#FED15E}
    .fil0 {fill:#FFD064}
   ]]>
  </style>
 </defs>
 <g id="Layer_x0020_1">
  <metadata id="CorelCorpID_0Corel-Layer"/>
  <g id="_105553248663072">
   <path class="fil0" d="M5485.32 6440.5c458.73,37.37 214.72,322.82 294.27,755.58 49.33,268.47 252.71,428.68 558.75,412.42 906.59,-48.14 155.96,-1097.12 799.93,-1171.53 84.29,138.63 87.46,85.11 87.46,321.46 0,1717.72 -1829.52,1595.69 -1829.52,65.31 0,-250.58 -12.78,-215.89 89.11,-383.24zm1675.29 -1004.94l51.9 556.29c-856.21,48.69 -2284.15,-90.27 -3003.9,60.74 -197.52,333.25 -199.62,228.94 -168.91,771.59 18.93,334.71 51.38,540.21 112.25,805.25 128.43,559.39 293.73,1016.66 548.09,1365.5l3052.06 7.12c11,-15.52 25.53,-35.17 33.11,-46.46l88.79 -134.81c16.59,-27.13 53.26,-95.11 70.58,-126.18 387.64,-693.99 571.62,-1453.27 516.12,-2294.25 -130.41,-457.23 -355.66,-339.23 -601.5,-422.81l-162.06 -88.37c543,-217.29 908.72,-234.94 1425.2,-86.12 151.91,68.95 321.53,162.19 204.35,333.37 16.16,110.29 47.02,93.53 -53.06,84.59 7.69,96.85 24.69,67.29 -82.44,52.81l-128.45 72.45 -247.23 86.67 -249.14 129.57c54.21,923.76 -71.74,1175.36 -240.75,1870.98 570.16,248.98 1489.53,121.42 2175.15,121.42l0.84 -3783.37 -291.49 -1.53 -2199.33 33.7 -888.24 41.2 38.06 590.65z"/>
   <path class="fil1" d="M3879.96 3768.3c-2.47,388.25 64.35,932.49 -79.54,1228.34 -408.82,28.45 -372.32,-53.08 -370.74,-454.73 1.11,-279.64 13.3,-525.63 -12.67,-806.11l-77.55 5.53c-10.8,212.36 -209.86,844.96 -268.18,1206.8 -157.74,978.58 -553.16,3242.54 -84.47,4059.4l1299.27 -6.49c-76.53,-172.77 -22.66,-48.47 -82.58,-159.28l-139.11 -259.55c-63.01,-139.87 -91.31,-234.89 -138.73,-379.82 -147.81,-451.72 -397.6,-1430.2 -278.86,-1867.93 50.22,-185.17 306.95,-408.05 561.81,-281.87 719.75,-151.01 2147.69,-12.05 3003.9,-60.74l-51.9 -556.29c-85.9,-97.07 -32.05,29.21 -97.79,-176.8 -11.39,-35.71 -24.91,-129.66 -32.44,-167.32 -23.82,-119.36 -42.33,-223.77 -78.19,-332.41l-176.77 -531.53c-74.93,-392.19 -86.15,-223.8 -253.05,-490.59l-437.66 -18.78c-130.06,308.09 28.37,944.7 -125.21,1277.2 -461.97,40.31 -379.24,-122.74 -372.19,-587.21 3.65,-241.54 24.31,-517.1 -25.28,-750.07 -314.81,54.45 -346.96,95.67 -791.59,93.32 -295.21,-1.56 -599.22,-21.5 -890.48,16.93z"/>
   <path class="fil2" d="M8815.51 6432.94l247.23 -86.67 128.45 -72.45c107.13,14.48 90.13,44.04 82.44,-52.81 100.08,8.94 69.22,25.7 53.06,-84.59 117.18,-171.18 -52.44,-264.42 -204.35,-333.37 109.06,108.93 178.87,121.16 204.35,333.37l-53.06 84.59 -82.44 52.81 -128.45 72.45 -247.23 86.67 -354.81 -32.59c55.5,840.98 -128.48,1600.26 -516.12,2294.25 -17.32,31.07 -53.99,99.05 -70.58,126.18l-88.79 134.81c-7.58,11.29 -22.11,30.94 -33.11,46.46l2802.88 -8.01c143.66,-325.33 266.28,-544.06 501.76,-671.9 148.79,180.13 255.23,190.43 364.48,455.03l32.28 9.54 0.34 -3995.06 -952.23 -20.11 -0.84 3783.37c-685.62,0 -1604.99,127.56 -2175.15,-121.42 169.01,-695.62 294.96,-947.22 240.75,-1870.98l249.14 -129.57z"/>
   <path class="fil3" d="M2058.7 8651.01l98.06 117.21c8.69,9.54 22.24,26.81 32.12,36.95 244.04,250.36 403.53,180.49 797.93,202.36 -468.69,-816.86 -73.27,-3080.82 84.47,-4059.4 58.32,-361.84 257.38,-994.44 268.18,-1206.8 -596.09,42.71 -584.89,196.24 -738.82,716.98 -659.2,2229.91 -372.84,3194.4 -541.94,4192.7z"/>
   <path class="fil4" d="M11446.3 4767.39l7.54 24.26 -0.34 3995.06 -32.28 -9.54 -866.24 216.87 -2802.88 8.01 -3052.06 -7.12 -413.96 6.11 -1299.27 6.49c-394.4,-21.87 -553.89,48 -797.93,-202.36 -9.88,-10.14 -23.43,-27.41 -32.12,-36.95l-98.06 -117.21c71.56,478.92 138.98,569.64 742.45,575.89 1282.39,13.28 2685.41,-36.03 3939.33,34.6 839.89,47.33 1752,-34.67 2613.71,-34.64 734.72,0.02 1983.9,156.87 2099.31,-440.15 60.94,-70.19 26.68,14.43 72.85,-144.47l20.68 -1361.32c-0.1,-501.79 0.82,-1003.54 -2.05,-1505.18 -6.65,-1162.53 670.49,-566.2 979.49,-1487.77l105.18 -444.15 -59.19 92.42c-267.11,433.63 -446.32,794.99 -1124.16,831.15z"/>
   <path class="fil5" d="M3417.01 3735.8c25.97,280.48 13.78,526.47 12.67,806.11 -1.58,401.65 -38.08,483.18 370.74,454.73 143.89,-295.85 77.07,-840.09 79.54,-1228.34 -47.1,-1507.06 1674.18,-1415.2 1682.07,-110.25 49.59,232.97 28.93,508.53 25.28,750.07 -7.05,464.47 -89.78,627.52 372.19,587.21 153.58,-332.5 -4.85,-969.11 125.21,-1277.2l-75.76 -432.96 20.68 -113.06 -67.22 -129.17 -13.93 9.99 -57.09 -127.47c-161.89,-296.89 -245.39,-415.07 -570.11,-569.32 -877.41,-416.9 -1968.55,129.24 -1904.27,1379.66z"/>
   <path class="fil6" d="M10063.93 2304.99c98.15,-90.57 198.73,-112.45 272.7,-142.74 194.75,159.05 40.43,26.64 158.18,188.75 54.96,75.67 -1.71,12.55 80.86,113.9 6.35,7.78 148.99,124.25 315.28,422.11l-974.41 -243.07c37.49,-204.25 20.61,-221.94 147.39,-338.95zm-504.45 407.95l-0.94 42.2 6.6 125.44c101.34,219.3 156.67,272.11 380.17,309.18l-40.88 -362.9c502.38,29.63 916.51,30 1170.33,405.95 113.77,168.51 83.35,273.02 97.61,312.75 109.72,305.64 136.71,44.93 218.5,693.65 -241.01,-106.21 -705.36,-524.76 -955.67,-389.09l56.5 61.01c203.9,70.48 389.81,160.11 565.16,248.11 269.59,135.28 276.16,151.64 399.13,387.69l205.26 -381.21 79.85 -387.79 67.66 25.16 20.81 -520.64 -88.47 495.48c-123.22,1.71 -41.27,28.6 -146.45,-28.34 -46.06,-363.47 10.55,-237.78 60.42,-494.81 28.32,-145.88 -20.9,-794.13 -164.65,-1045.38 -156.01,-272.68 -85.29,-161.64 -351.93,-297.54l-79.45 -128.6 -58.84 -51.7c-827.79,-63.06 -676.67,116.42 -923.3,328.13 -252.95,217.12 -186.87,6.87 -256.36,396.14 -49.03,274.8 9.56,366.78 -261.06,257.11zm617.06 646.91l94.25 60.55c246.61,69.98 631.47,90.07 858.14,69.39 -176.65,-143.38 -546,-182.6 -952.39,-129.94z"/>
   <path class="fil3" d="M9386.74 3718.23c346.81,-98.28 660.01,79.3 564.8,356.37 -51.63,61.91 75.64,202.47 -319.98,-71.66 -233.48,-161.79 -173.58,-96.95 -244.82,-284.71zm-825.04 -210.35l-50.12 33.11 50.12 -33.11zm1711.59 645.53c-12.65,-223.3 39.54,-68.03 -74.31,-254.19 -60.55,-99 -105.72,-137.2 -197.18,-203.01 -167.38,-120.42 -367.62,-180.25 -609.63,-223.67l-742.33 19.47c-997.65,1326.51 1225.26,1153.54 1492.84,850.47 13.92,-15.74 53.73,-72.45 65.29,-88.37l65.32 -100.7z"/>
   <path class="fil7" d="M9945.31 3189.76c124,85.72 107,76.51 231.23,170.09 406.39,-52.66 775.74,-13.44 952.39,129.94 -226.67,20.68 -611.53,0.59 -858.14,-69.39 222.26,263.75 62.55,192.08 164.41,429.72l56.5 61.01c136.88,409.04 288.44,309.25 356.89,885.91l-634.91 -7.96 -3.56 -19.07 291.49 1.53 952.23 20.11 -7.54 -24.26 9.69 -220.46c-122.97,-236.05 -129.54,-252.41 -399.13,-387.69 -175.35,-88 -361.26,-177.63 -565.16,-248.11l-56.5 -61.01c250.31,-135.67 714.66,282.88 955.67,389.09 -81.79,-648.72 -108.78,-388.01 -218.5,-693.65 -14.26,-39.73 16.16,-144.24 -97.61,-312.75 -253.82,-375.95 -667.95,-376.32 -1170.33,-405.95l40.88 362.9z"/>
   <path class="fil5" d="M5396.21 6823.74c0,1530.38 1829.52,1652.41 1829.52,-65.31 0,-236.35 -3.17,-182.83 -87.46,-321.46 -643.97,74.41 106.66,1123.39 -799.93,1171.53 -306.04,16.26 -509.42,-143.95 -558.75,-412.42 -79.55,-432.76 164.46,-718.21 -294.27,-755.58 -101.89,167.35 -89.11,132.66 -89.11,383.24z"/>
   <path class="fil8" d="M11939.76 2771.43l-110.19 511.02 -20.81 520.64 741.07 -86.89c-608.37,484.07 -467.56,456.73 -754.02,417.81l-134.56 31.71 -205.26 381.21 -9.69 220.46c677.84,-36.16 857.05,-397.52 1124.16,-831.15l59.19 -92.42c-92.92,-320.84 -37.32,-11.08 -309.6,-216.73 163.55,-281.87 217.15,-708.48 173.73,-1095.27 -306.63,23.82 -429.84,55.13 -554.02,239.61z"/>
   <path class="fil3" d="M4286.08 9001.04l413.96 -6.11c-254.36,-348.84 -419.66,-806.11 -548.09,-1365.5 -60.87,-265.04 -93.32,-470.54 -112.25,-805.25 -30.71,-542.65 -28.61,-438.34 168.91,-771.59 -254.86,-126.18 -511.59,96.7 -561.81,281.87 -118.74,437.73 131.05,1416.21 278.86,1867.93 47.42,144.93 75.72,239.95 138.73,379.82l139.11 259.55c59.92,110.81 6.05,-13.49 82.58,159.28z"/>
   <path class="fil9" d="M8511.58 3540.99c-230.64,69.67 -344.98,160.95 -485.52,251.72l-12.53 74.16c-146.82,285.97 -89.01,295.29 -111.38,615.91l105.6 287.18 3.04 33.75 2199.33 -33.7 3.56 19.07 59.61 -635.67 -65.32 100.7c-11.56,15.92 -51.37,72.63 -65.29,88.37 -267.58,303.07 -2490.49,476.04 -1492.84,-850.47l-88.14 15.87 -50.12 33.11z"/>
   <path class="fil10" d="M9392.17 3472.54c242.01,43.42 442.25,103.25 609.63,223.67 91.46,65.81 136.63,104.01 197.18,203.01 113.85,186.16 61.66,30.89 74.31,254.19l-59.61 635.67 634.91 7.96c-68.45,-576.66 -220.01,-476.87 -356.89,-885.91l-56.5 -61.01c-101.86,-237.64 57.85,-165.97 -164.41,-429.72l-94.25 -60.55c-124.23,-93.58 -107.23,-84.37 -231.23,-170.09 -223.5,-37.07 -278.83,-89.88 -380.17,-309.18 -240.78,119.68 -48,1.41 -218.09,155.22l45.12 436.74z"/>
   <path class="fil4" d="M4107.19 3674.69c-1.23,-332.71 99.22,-468.15 360.8,-555.31 283.53,-94.45 556.18,-38.73 700.96,110.36 599.25,616.97 -647.28,482.71 -1061.76,444.95zm-227.23 93.61c291.26,-38.43 595.27,-18.49 890.48,-16.93 444.63,2.35 476.78,-38.87 791.59,-93.32 -7.89,-1304.95 -1729.17,-1396.81 -1682.07,110.25z"/>
   <path class="fil11" d="M9482.92 2514.72c1.23,-93.24 19.5,-65.22 -83.75,-47.72l-105.13 -61.56c0,114.2 -23.15,79.06 105.13,61.56l83.75 47.72 76.56 198.22c270.62,109.67 212.03,17.69 261.06,-257.11 69.49,-389.27 3.41,-179.02 256.36,-396.14 246.63,-211.71 95.51,-391.19 923.3,-328.13l58.84 51.7 79.45 128.6c266.64,135.9 195.92,24.86 351.93,297.54 143.75,251.25 192.97,899.5 164.65,1045.38 -49.87,257.03 -106.48,131.34 -60.42,494.81 105.18,56.94 23.23,30.05 146.45,28.34l88.47 -495.48 110.19 -511.02c-40.93,-354.2 -14.41,-196.19 -145.06,-406.81 -112.02,-180.6 -112.57,-238.7 -181.93,-389l-474.28 -63.76 -79.45 -128.6 -58.84 -51.7c-526.1,-191.27 -857.69,2.77 -1120.58,192.83 -590.96,427.3 -165.07,232.08 -396.7,590.33z"/>
   <path class="fil12" d="M7975.42 2510.54l54.49 351.43c509.74,-119.65 1371.26,-100.4 1127.8,582.77 -651.67,53.35 -1070.09,-374.64 -1081.39,-411.61 -8.15,-26.76 -32.12,-24.44 -48.85,-35.73l-1.41 795.31c140.54,-90.77 254.88,-182.05 485.52,-251.72l50.12 -33.11 88.14 -15.87 742.33 -19.47 -45.12 -436.74c170.09,-153.81 -22.69,-35.54 218.09,-155.22l-6.6 -125.44c-542.26,-17.52 -985.82,-53.45 -1253.56,-405.23 -219.71,63.17 -196.75,61.17 -329.56,160.63z"/>
   <path class="fil7" d="M8460.7 6400.35l354.81 32.59 247.23 -86.67 128.45 -72.45 82.44 -52.81 53.06 -84.59c-25.48,-212.21 -95.29,-224.44 -204.35,-333.37 -516.48,-148.82 -882.2,-131.17 -1425.2,86.12l162.06 88.37c245.84,83.58 471.09,-34.42 601.5,422.81z"/>
   <path class="fil13" d="M6830.68 3616.27c279.1,75.79 283.97,54.39 373.35,247.09l138.27 142.27 47.37 66.16 47.4 85.67 75.76 78.46 18.39 32.92 72.9 8.16c170.61,115.25 27.7,-80.71 159.07,148.29 50.15,87.44 38.01,116.1 63.69,202.84 58.96,-64.82 36.55,-6.89 75.27,-145.35 22.37,-320.62 -35.44,-329.94 111.38,-615.91l-108.93 -158.92c-180.8,82.02 -368.91,192.31 -577.38,-20.86 -166.73,-170.49 -123.78,-503.56 -135.42,-783.72l-377.09 57.21 15.97 655.69z"/>
   <path class="fil14" d="M8013.53 3866.87l12.53 -74.16 1.41 -795.31 2.2 -61.61 -25.06 -18.41 -86.49 -7.51c4.25,282.19 47.15,374.96 -85.63,556.49 -258.2,-83.43 -171.23,-234.17 -175.83,-565.74l-464.86 2.75c11.64,280.16 -31.31,613.23 135.42,783.72 208.47,213.17 396.58,102.88 577.38,20.86l108.93 158.92z"/>
   <path class="fil7" d="M8029.91 2861.97l-0.24 73.82 -2.2 61.61c16.73,11.29 40.7,8.97 48.85,35.73 11.3,36.97 429.72,464.96 1081.39,411.61 243.46,-683.17 -618.06,-702.42 -1127.8,-582.77z"/>
   <path class="fil15" d="M7229.9 2824.16l426.76 76.46 261.46 9.25c58.17,-67.29 15.76,-64.26 86.49,7.51l25.06 18.41 0.24 -73.82 -54.49 -351.43c-234.66,-148.52 -420.85,-72.45 -710.5,-57.28 -331.86,17.37 -386.2,-12.21 -380.57,341.77l345.55 29.13z"/>
   <path class="fil16" d="M9558.54 2755.14l0.94 -42.2 -76.56 -198.22 -83.75 -47.72c-128.28,17.5 -105.13,52.64 -105.13,-61.56l-312.98 -103.67 -422.85 -6.92 -253.23 55.06c267.74,351.78 711.3,387.71 1253.56,405.23z"/>
   <path class="fil10" d="M6326.89 3441.8l-58.74 -72.06 -57.06 -74.12 -109.47 -88.44 -53.95 -73.82 -5.34 -95.43 -49.92 15.86c-39.86,-88.42 26.72,-52.02 -101.02,-128.33l57.09 127.47 43.93 0.86 55.26 79.57 53.95 73.82 109.47 88.44 57.06 74.12 58.74 72.06 93.29 158.45c-393.51,-7.86 -157.31,5.41 -411.23,-315.08l75.76 432.96 437.66 18.78c116.91,-122.05 94.97,-91.34 308.31,-120.64l-15.97 -655.69 -58.42 0 14.16 470.96c-223.84,-88.81 -176.24,-10.03 -220.16,-343.1 -52.21,-395.84 -2.17,-351.44 66.53,-406.3l-299.71 27.43c-9.32,304.34 94.72,624.98 144.61,811.48 -53.45,-75.18 -78.85,-34.5 -134.83,-79.25zm-297.26 -269.69l-67.22 -129.17 67.22 129.17z"/>
   <path class="fil7" d="M9916.54 2643.94l974.41 243.07c-166.29,-297.86 -308.93,-414.33 -315.28,-422.11 -82.57,-101.35 -25.9,-38.23 -80.86,-113.9 -117.75,-162.11 36.57,-29.7 -158.18,-188.75 -73.97,30.29 -174.55,52.17 -272.7,142.74 -126.78,117.01 -109.9,134.7 -147.39,338.95z"/>
   <path class="fil12" d="M6775.42 4227.5l176.77 531.53 875.63 -59.33c-79.38,-185.74 -122.95,-264.22 -223.7,-422.7l-72.9 -8.16 -113.08 244.18 -502.55 -34.54c26.76,-201.38 -11.07,-145.68 158.95,-317.48 188.36,-190.31 32.35,-86.03 267.76,-155.37l47.37 66.16 47.4 85.67c4.74,102.07 -23.01,78.46 75.76,78.46l-75.76 -78.46 -47.4 -85.67 -47.37 -66.16 -138.27 -142.27c-64.75,130.36 -61.98,157.89 -175.23,250.73 -162.86,133.55 -49.53,63.39 -253.38,113.41z"/>
   <path class="fil17" d="M10554.98 8994.04l866.24 -216.87c-109.25,-264.6 -215.69,-274.9 -364.48,-455.03 -235.48,127.84 -358.1,346.57 -501.76,671.9z"/>
   <path class="fil7" d="M8558.21 2294.85l422.85 6.92c-93.41,-236.27 -184.77,-460.83 -488.56,-489.18 -391.22,-36.5 -253.25,40.78 -327.91,112.62 97.96,261.63 197.65,185.46 393.62,369.64z"/>
   <path class="fil10" d="M11808.76 3803.09l-67.66 -25.16 -79.85 387.79 134.56 -31.71c286.46,38.92 145.65,66.26 754.02,-417.81l-741.07 86.89z"/>
   <path class="fil16" d="M7531.22 4268.84l-18.39 -32.92c-98.77,0 -71.02,23.61 -75.76,-78.46l-47.4 -85.67 -47.37 -66.16c-235.41,69.34 -79.4,-34.94 -267.76,155.37 -170.02,171.8 -132.19,116.1 -158.95,317.48l502.55 34.54 113.08 -244.18z"/>
   <path class="fil16" d="M6776.09 3913.06c-381.19,-188.88 100.87,170.24 -84.74,-106.58 254.09,-203.36 375.75,75.79 377.7,78.33 -4.92,3.17 26.47,186.53 -292.96,28.25zm-253.72 -176.15c166.9,266.79 178.12,98.4 253.05,490.59 203.85,-50.02 90.52,20.14 253.38,-113.41 113.25,-92.84 110.48,-120.37 175.23,-250.73 -89.38,-192.7 -94.25,-171.3 -373.35,-247.09 -213.34,29.3 -191.4,-1.41 -308.31,120.64z"/>
   <path class="fil1" d="M9386.74 3718.23c71.24,187.76 11.34,122.92 244.82,284.71 395.62,274.13 268.35,133.57 319.98,71.66 95.21,-277.07 -217.99,-454.65 -564.8,-356.37z"/>
   <path class="fil2" d="M6952.19 4759.03c35.86,108.64 54.37,213.05 78.19,332.41 7.53,37.66 21.05,131.61 32.44,167.32 65.74,206.01 11.89,79.73 97.79,176.8l-38.06 -590.65 888.24 -41.2 -3.04 -33.75c-162.51,-54.12 -89.49,3.85 -179.93,-70.26l-875.63 59.33z"/>
   <path class="fil18" d="M7656.66 2900.62c4.6,331.57 -82.37,482.31 175.83,565.74 132.78,-181.53 89.88,-274.3 85.63,-556.49l86.49 7.51c-70.73,-71.77 -28.32,-74.8 -86.49,-7.51l-261.46 -9.25 -426.76 -76.46 -38.1 79.21 464.86 -2.75z"/>
   <path class="fil7" d="M6756.29 2960.58l-9.68 -207.69 -129.79 -70.75c-68.7,54.86 -118.74,10.46 -66.53,406.3 43.92,333.07 -3.68,254.29 220.16,343.1l-14.16 -470.96z"/>
   <path class="fil4" d="M6042.33 3037.93l5.34 95.43 53.95 73.82 109.47 88.44 57.06 74.12 58.74 72.06c55.98,44.75 81.38,4.07 134.83,79.25 -49.89,-186.5 -153.93,-507.14 -144.61,-811.48 -67.86,97.94 -106.36,-133.74 -106.36,315.09l-168.42 13.27z"/>
   <path class="fil14" d="M7211.79 2389.95l29.36 -413.32 148.17 265.88 171.68 -302.62c3.63,321.43 -55.38,231.11 121.48,356.89l-22.14 -356.03 -472.69 -12.53 24.14 461.73z"/>
   <path class="fil13" d="M7211.79 2389.95l422.11 -60.15c14.51,-6.03 32.94,-21.26 48.58,-33.02 -176.86,-125.78 -117.85,-35.46 -121.48,-356.89l-171.68 302.62 -148.17 -265.88 -29.36 413.32z"/>
   <path class="fil7" d="M6029.63 3172.11l-20.68 113.06c253.92,320.49 17.72,307.22 411.23,315.08l-93.29 -158.45 -58.74 -72.06 -57.06 -74.12 -109.47 -88.44 -53.95 -73.82 -55.26 -79.57 -43.93 -0.86 13.93 -9.99 67.22 129.17z"/>
   <path class="fil19" d="M6691.35 3806.48c185.61,276.82 -296.45,-82.3 84.74,106.58 319.43,158.28 288.04,-25.08 292.96,-28.25 -1.95,-2.54 -123.61,-281.69 -377.7,-78.33z"/>
   <path class="fil5" d="M7827.82 4699.7c90.44,74.11 17.42,16.14 179.93,70.26l-105.6 -287.18c-38.72,138.46 -16.31,80.53 -75.27,145.35 -25.68,-86.74 -13.54,-115.4 -63.69,-202.84 -131.37,-229 11.54,-33.04 -159.07,-148.29 100.75,158.48 144.32,236.96 223.7,422.7z"/>
   <path class="fil1" d="M11730.15 9436.12l158.55 0c-147.78,-147.83 159.3,-66.4 -142.51,-115.7l-16.04 115.7z"/>
  </g>
  <g id="_105553248703040">
   <path class="fil20" d="M12724.41 11406.84c-128.77,-49.16 -143.54,-113.27 -292.77,-210.32 -207.51,298.72 -411.99,187.63 -569.35,805.33 -92.64,363.64 -172.07,754.8 -299.68,1091.97 -60.74,318.37 -20.58,364.69 29.72,762.9 13.9,109.99 18.51,315.44 33.69,401.98 64.05,365.47 -37.75,222.69 200.25,288.57l205.97 -105.06c204.29,216.91 239.61,278.11 339.67,576.17l-13.75 41.09c48.03,56.36 57.17,-40.37 137.21,221.06l487.66 97.98c93.42,343.33 -54.33,527.65 132.8,795.92l82.6 -857.65c6.85,-953.14 8.65,-764.81 1008.25,-884.76 -25.57,549.33 67.04,1465.31 -143.08,1648.12l40.86 392.58c438.98,40.92 957.84,86.25 1377,-36.31 -176.39,-265.66 -399.31,-196.39 -640.45,-400.24 -219.96,-606.9 127,-1429.03 -11.84,-2064.99 -425.67,-368.05 -1022.68,-319.03 -1570.2,-564.39 0.23,-316.86 37.7,-509.94 62.71,-810.2 26.88,-322.4 -50.9,-427.78 -31.83,-708.71 -53.46,-59.32 -63.3,-44.12 -123.7,-152.54 -56.7,-101.84 -47.65,-106.98 -90.17,-232.44l-69.71 328.41 -281.86 -424.47z"/>
   <path class="fil21" d="M19083.54 13234.87c-49.72,174.77 -1.6,140.03 65.79,318.63l-1217.9 1240.45 -1782.15 32.36c-311.72,851.42 330.88,1767.52 -434.4,1693.77 -378.79,-36.48 -100.15,-1.68 -233.42,-83.67 -419.16,122.56 -938.02,77.23 -1377,36.31l-333.72 46.87c-97.11,555.74 -2.15,1255.95 -35.03,1566.28 -28.15,265.99 77.81,293.21 -152.34,296.63l-1282.65 -8.3 -187.77 17.5 -909.17 11.09 -1.62 326.44c482.66,94.41 2409.07,154.71 2745.09,-41.01 183.74,-165.89 73.37,-1256.44 114.52,-1800.78l2228.82 -33.6c169.57,-425.84 78.42,-1152.49 79,-1651.12 649.94,-222.77 1419.14,189.92 1871.04,-265.25 304.29,-306.5 826.54,-785.54 1050.01,-1089.66 397.07,104.65 244.04,288.48 371.48,-3.54 77.83,-178.28 26.58,-282.41 185.91,-505.36l-80.45 -267.84 -684.04 163.8z"/>
   <path class="fil22" d="M11202.16 18729.23l-40.72 209.3c588.01,42.03 2461.63,136 2916.99,-17.41 145.86,-340.11 73.07,-939.55 93.19,-1392.47 834.75,-572.57 1542.28,71.45 2088.03,-434.25 554.44,-513.72 -271.12,-1537.75 900.61,-1562.31 1206.67,-25.3 1052.39,-116.05 1691.74,-749.54 270.14,-267.67 420.96,-300.15 703.2,-525.33 355.55,-283.69 213.57,-376.41 292.83,-918.31 -159.33,222.95 -108.08,327.08 -185.91,505.36 -127.44,292.02 25.59,108.19 -371.48,3.54 -223.47,304.12 -745.72,783.16 -1050.01,1089.66 -451.9,455.17 -1221.1,42.48 -1871.04,265.25 -0.58,498.63 90.57,1225.28 -79,1651.12l-2228.82 33.6c-41.15,544.34 69.22,1634.89 -114.52,1800.78 -336.02,195.72 -2262.43,135.42 -2745.09,41.01z"/>
   <path class="fil23" d="M12358.16 15059.47l-32.19 240.22 -289.96 4.26c-212.41,-67.59 -78.06,75.31 -140.4,-170.27l-3.11 -34.1 -162.49 216.1 -392.52 10.33c-143.49,305.16 -69.92,827.67 -99,1222.84l1147.91 49.42 -27.87 455.56 107.79 -458.03 536.18 -0.93 113.33 -420.44c-187.13,-268.27 -39.38,-452.59 -132.8,-795.92l-487.66 -97.98c-80.04,-261.43 -89.18,-164.7 -137.21,-221.06l13.75 -41.09 -73.57 61.35 59.82 -20.26z"/>
   <path class="fil20" d="M12358.53 17053.83c-6.79,159.47 -9.8,339.03 -23.74,496.82 -23.79,269.59 49.02,281.57 -107.26,334.22l73.19 489.33 1282.65 8.3c-11.08,-15.81 -30.56,-33.89 -39.87,-42.05l-683.41 -423.66 142.41 -1321.92 -536.18 0.93 -107.79 458.03z"/>
   <path class="fil24" d="M13153.79 10531.83c20.26,114.78 46.41,85.67 -64.37,97.63 -40.66,184.23 61.7,68.58 -74.27,163.57l-106.65 -218.68c-221.44,110.4 -24.96,-20.81 -176.66,227.09 -147.78,241.5 -116.9,345.74 -165.04,246.08 -6.27,-13.03 -27.23,33.99 -40.08,51.57l301.53 163.86 233.83 137.77c88.26,-103.12 195,-89.68 333.35,-96.94 225.7,-258.06 92.95,-503.58 92.17,-898.46 -124.71,23.4 -70.67,10.16 -181.39,50.42 -26.23,9.54 -79.49,94.55 -103.66,48.75 -8.07,-15.2 -32.1,19.01 -48.76,27.34z"/>
   <path class="fil22" d="M12227.53 17884.87c-13.47,19.73 -30.53,43.12 -38.05,60.74 -110.69,259.45 -74.32,-49.89 -76.53,446.09l187.77 -17.5 -73.19 -489.33c156.28,-52.65 83.47,-64.63 107.26,-334.22 13.94,-157.79 16.95,-337.35 23.74,-496.82l27.87 -455.56 -1147.91 -49.42c162.5,521.11 425.12,212.15 796.74,462.98 291.87,197 102.54,499.53 192.3,873.04z"/>
   <path class="fil22" d="M13198.43 15316.78c17.56,-21.33 40.31,-81.75 48.87,-66.92l319.97 -419.02c355.43,-9.96 474.47,-31.69 501.06,326.35 21.39,288.1 0.03,637.96 -4.73,922.95 210.12,-182.81 117.51,-1098.79 143.08,-1648.12 -999.6,119.95 -1001.4,-68.38 -1008.25,884.76z"/>
   <path class="fil20" d="M12526.72 11099.09c12.85,-17.58 33.81,-64.6 40.08,-51.57 48.14,99.66 17.26,-4.58 165.04,-246.08 151.7,-247.9 -44.78,-116.69 176.66,-227.09l180.92 55.11c-33.46,-142 -71.13,-123.78 64.37,-97.63 120.06,-171.26 93.39,-168.21 329.63,-213.69l-38.54 -205.09c-863.72,-336.4 -1172.48,249.64 -918.16,986.04z"/>
   <path class="fil25" d="M15481.46 16436.41c133.27,81.99 -145.37,47.19 233.42,83.67 765.28,73.75 122.68,-842.35 434.4,-1693.77l1782.15 -32.36 1217.9 -1240.45c-67.39,-178.6 -115.51,-143.86 -65.79,-318.63l-37.09 318.63c-186.73,138.09 -366.35,363.59 -556,559.77 -831.22,859.92 -329.98,544.54 -2427.62,627.6 -78.28,499.41 -93.6,1144.25 -65.91,1684.81l-515.46 10.73z"/>
   <path class="fil22" d="M11337.49 15326.01l392.52 -10.33 162.49 -216.1 -66.23 -552.31c-238,-65.88 -136.2,76.9 -200.25,-288.57 -15.18,-86.54 -19.79,-291.99 -33.69,-401.98 -50.3,-398.21 -90.46,-444.53 -29.72,-762.9 -136.26,187.37 -135.5,191.17 -139.94,534.03 -14.78,1139.78 213.28,968.38 231.82,1535.93 -50.52,24.35 -111.96,44.28 -156.31,66.11 -173.52,85.53 -74.82,32.56 -160.69,96.12z"/>
   <path class="fil24" d="M11892.5 15099.58l3.11 34.1 289.03 108.78 113.7 -162.73 73.57 -61.35c-100.06,-298.06 -135.38,-359.26 -339.67,-576.17l-205.97 105.06 66.23 552.31z"/>
   <path class="fil22" d="M12724.41 11406.84l281.86 424.47 69.71 -328.41c42.52,125.46 33.47,130.6 90.17,232.44 60.4,108.42 70.24,93.22 123.7,152.54 20.28,-236.21 49.51,-410.57 105.58,-584.1 -138.35,7.26 -245.09,-6.18 -333.35,96.94l-233.83 -137.77c95.63,108.31 81.53,25.34 101.23,160.58 46.93,322.31 -28.21,178.02 -44.84,215.48 -61.67,-370.26 -15.7,-98.12 -160.23,-232.17z"/>
   <path class="fil26" d="M13153.79 10531.83c-135.5,-26.15 -97.83,-44.37 -64.37,97.63l-180.92 -55.11 106.65 218.68c135.97,-94.99 33.61,20.66 74.27,-163.57 110.78,-11.96 84.63,17.15 64.37,-97.63 16.66,-8.33 40.69,-42.54 48.76,-27.34 24.17,45.8 77.43,-39.21 103.66,-48.75 110.72,-40.26 56.68,-27.02 181.39,-50.42 45.48,-67.06 5.43,-87.79 77.31,-149.05 -49.42,-357.12 43.97,28.47 -120.03,-143.22l38.54 205.09c-236.24,45.48 -209.57,42.43 -329.63,213.69z"/>
   <path class="fil22" d="M11895.61 15133.68c62.34,245.58 -72.01,102.68 140.4,170.27l289.96 -4.26 32.19 -240.22 -59.82 20.26 -113.7 162.73 -289.03 -108.78z"/>
  </g>
  <g id="_105553248087552">
   <path class="fil27" d="M2738.57 19055.33c11.39,318.12 21.03,325.19 517.99,340.95l-89.63 1347.86c-7.87,5.75 -32.3,-2.6 -39.88,15.64 -7.9,18.97 -39.43,10.23 -50.88,12.23 -44.95,7.95 -135.57,22.86 -177.79,27.17 -136.72,13.98 -288.67,18.74 -426.83,28.07 -212.34,111.16 -269.59,185.52 -314.4,506.4 -35.4,253.38 -86.25,603.66 -86.3,836.56 -15.39,431.36 -153.47,841.91 -14.69,1101.07 155.16,289.68 660.01,231.45 1055.81,240.47 189,414.82 358.71,295.12 1334.32,294.42 546.88,-0.37 1093.75,0.45 1640.62,0 437.54,-0.37 1226.38,131.79 1532.1,-129.12 252.73,-215.64 -71.11,-132.1 634.24,-177.96 246.56,-16.03 232.36,-3.46 445.55,-155.61l155.66 -114.28c31.34,-448.48 -35.76,-936.05 -92.19,-1349.5 -65.81,-482.27 -16.49,-766.14 -377.73,-1059.69l-719.03 -74.21 -79.56 -1201.41c154.2,-116.37 -57.78,-10.15 250.98,-149.04 68.8,-30.95 153.78,-53.89 233.74,-90.64l-169.08 -2117.25c-15.02,-593.07 -358.29,-489.65 -926.21,-490.36l-21.96 2742.78 5.89 195.89 40.5 2362.99 -12.23 3.32c226.04,112.15 62.07,-50.62 119.48,155.02 16.49,59.08 8.71,223.39 8.71,292.08 -71.23,240.84 15.08,71.7 -147.02,145.6 -41.12,378.98 -90.75,429.23 -346.08,566.46 -245.35,-198.84 -260.17,-147.52 -301.66,-567.22 -201.8,-64.71 -82.72,67.22 -150.42,-144.84 0,-18.35 -5.5,-224.66 -5.1,-226.38 52.98,-227.37 -26.1,-96.14 128.49,-224.07l-5.35 -0.11 40.27 -2371.25 7.41 -187.4 -21.53 -2784.08 -440.33 19.23 -908.4 1.88 -437.77 -15.98 -19.16 2778.55 5.44 184.84 39.29 2373.9 122.12 54.62 -13.89 396.25c-73.76,215.75 41.57,70.26 -144.68,119.73 -3.18,255.83 25.71,371.08 -124.32,498.73 -112.77,95.94 -9.67,8.91 -170.49,90.08 -319.7,-128.81 -302.85,-207.64 -315.3,-591.77 -175,112.23 -34.39,48.17 -131.51,-42.28l-14.52 -446.98 100.9 -80.27 33.8 -2341.94 6.96 -214.46 -13.84 -2754.08 -768.18 35.43c-243.23,341.49 -387.15,1773.33 -382.33,2333.96z"/>
   <path class="fil28" d="M3889.08 16685.94l13.84 2754.08 606.2 -0.45 19.16 -2778.55c-125.81,-245.32 22.02,-355.44 -45.54,-663.04 -150.9,169.05 -74.35,238.66 -162.26,517.84 -449.13,28.38 -287.32,-71.62 -431.4,170.12z"/>
   <path class="fil28" d="M6314.78 16655.89l21.53 2784.08 617.11 -0.09 21.96 -2742.78 -50.23 -146.5 -427.98 -24.07c-191.55,103.43 -80.27,-41.92 -182.39,129.36z"/>
   <path class="fil29" d="M3243 24013.81l4348.64 0c454.79,-300.68 1240.02,-70.27 1262.82,-784.61l-155.66 114.28c-213.19,152.15 -198.99,139.58 -445.55,155.61 -705.35,45.86 -381.51,-37.68 -634.24,177.96 -305.72,260.91 -1094.56,128.75 -1532.1,129.12 -546.87,0.45 -1093.74,-0.37 -1640.62,0 -975.61,0.7 -1145.32,120.4 -1334.32,-294.42 -395.8,-9.02 -900.65,49.21 -1055.81,-240.47 -138.78,-259.16 -0.7,-669.71 14.69,-1101.07 -131.66,176.6 -148.43,315.5 -164.94,541.09 -100.59,1373.76 900.98,837 1337.09,1302.51z"/>
   <polygon class="fil28" points="6288.63,21998.62 6999.81,21998.76 6959.31,19635.77 6328.9,19627.37 "/>
   <polygon class="fil28" points="3862.16,21996.42 4553.85,21998.31 4514.56,19624.41 3895.96,19654.48 "/>
   <path class="fil29" d="M8384.54 20820.01c-214.26,-145.26 -281.57,-146.76 -533.91,-130.75 -65.61,-1641.09 412.68,-568.4 380.21,-1741.8 -6.65,-240.61 -84.92,-1309.32 -205.49,-1570.43 -77.85,-168.63 -19.25,-93.43 -123.76,-189.57l169.08 2117.25c-79.96,36.75 -164.94,59.69 -233.74,90.64 -308.76,138.89 -96.78,32.67 -250.98,149.04l79.56 1201.41 719.03 74.21z"/>
   <path class="fil27" d="M4543.45 15607.78l-58.91 135.46 58.91 -135.46 393.66 -125.33 27.48 575.42 915.05 -5.58 38.72 -542.96 322.38 12.8 65.02 68.71 54.23 116.46 -54.23 -116.46 -65.02 -68.71c-322.46,-138.42 -1519.92,-151.92 -1697.29,85.65z"/>
   <path class="fil30" d="M5879.64 16052.29l-5.19 622.83 440.33 -19.23c102.12,-171.28 -9.16,-25.93 182.39,-129.36l-137.18 -819.23 -54.23 -116.46 -65.02 -68.71 -322.38 -12.8 -38.72 542.96z"/>
   <polygon class="fil29" points="4966.05,16677 5874.45,16675.12 5879.64,16052.29 4964.59,16057.87 "/>
   <path class="fil30" d="M4543.45 15607.78l-58.91 135.46 -1.8 254.74c67.56,307.6 -80.27,417.72 45.54,663.04l437.77 15.98 -1.46 -619.13 -27.48 -575.42 -393.66 125.33z"/>
   <path class="fil31" d="M3907.29 22565.95l610.11 2.96c186.25,-49.47 70.92,96.02 144.68,-119.73l13.89 -396.25 -122.12 -54.62 -691.69 -1.89 -100.9 80.27 14.52 446.98c97.12,90.45 -43.49,154.51 131.51,42.28z"/>
   <path class="fil29" d="M2471.55 20827.25c138.16,-9.33 290.11,-14.09 426.83,-28.07 42.22,-4.31 132.84,-19.22 177.79,-27.17 11.45,-2 42.98,6.74 50.88,-12.23 7.58,-18.24 32.01,-9.89 39.88,-15.64l89.63 -1347.86c-496.96,-15.76 -506.6,-22.83 -517.99,-340.95 -96.7,92.7 -95.49,220.97 -6.73,403.04 88.72,182.08 124.1,145.18 245.69,285.32 272.82,314.51 71.75,552.45 87.26,959.41 -77.68,-16.71 -158.32,-80.47 -404.88,8.48 -141.35,50.99 -116.07,59.16 -188.36,115.67z"/>
   <polygon class="fil31" points="6987.58,22002.08 6999.81,21998.76 6288.63,21998.62 6293.98,21998.73 6293.98,22489.23 6987.58,22482.52 "/>
   <path class="fil28" d="M4517.4 22568.91l-610.11 -2.96c12.45,384.13 -4.4,462.96 315.3,591.77 160.82,-81.17 57.72,5.86 170.49,-90.08 150.03,-127.65 121.14,-242.9 124.32,-498.73z"/>
   <path class="fil28" d="M6968.75 22594.78l-647.74 -0.76c41.49,419.7 56.31,368.38 301.66,567.22 255.33,-137.23 304.96,-187.48 346.08,-566.46z"/>
   <path class="fil29" d="M6321.01 22594.02l647.74 0.76c162.1,-73.9 75.79,95.24 147.02,-145.6 0,-68.69 7.78,-233 -8.71,-292.08 -57.41,-205.64 106.56,-42.87 -119.48,-155.02l0 480.44 -693.6 6.71 0 -490.5c-154.59,127.93 -75.51,-3.3 -128.49,224.07 -0.4,1.72 5.1,208.03 5.1,226.38 67.7,212.06 -51.38,80.13 150.42,144.84z"/>
   <polygon class="fil30" points="3895.96,19654.48 4514.56,19624.41 4509.12,19439.57 3902.92,19440.02 "/>
   <polygon class="fil30" points="6328.9,19627.37 6959.31,19635.77 6953.42,19439.88 6336.31,19439.97 "/>
   <polygon class="fil32" points="1612.5,23769.78 1612.5,24013.81 1730.06,24013.81 1803.57,23710.99 "/>
  </g>
  <g id="_105553248012288">
   <path class="fil33" d="M13788.42 27669.35c255.32,-395.19 638.45,-707.26 898.82,-1085.24 495.94,192.33 684.75,630.89 288.58,1112.29 -450.6,547.55 -747.3,497.19 -1187.4,-27.05zm-237.01 -513.28c785.22,-655.1 380.55,-487.47 697.67,-767.05 250.52,260.05 122.06,297.23 -111.77,531.76 -158.94,159.43 -216.08,258.87 -424.17,422.2l-161.73 -186.91zm-613.53 -122.98c46.97,-76.44 954.31,-1266.83 1055.38,-1152.21 278.72,316.08 -361.25,1172.44 -1055.38,1152.21zm-551.19 -326.15c145.07,-260.52 973.54,-1198.77 1230.17,-1417.17l232 262.26c-115.44,236.91 -939.78,1151.8 -1162.46,1375.11l-299.71 -220.2zm668.29 -1799.67c200.71,70.52 194.56,93.06 350.2,185.53 -105.44,232.95 -1023.2,1274.51 -1219.39,1421.64 -156.12,-148.78 -160,-114.32 -240.92,-323.38l1110.11 -1283.79zm-1418.12 708.92c208.28,-363.46 558.67,-609.43 789.05,-1001.17l379.94 215.05c-60.66,223.68 -869.72,1031.46 -1016.95,1159.14l-152.04 -373.02zm-100.92 -320.55c-88.23,-621.83 32.83,-890.46 695.22,-756.19 -103.7,194.58 -507.05,669.31 -695.22,756.19zm453.16 1350.49c681.52,780.97 1028.97,497.92 1369.65,687.89 372.78,207.84 -74.7,225.64 356.85,602.33 156.6,136.7 365.15,349.01 662.87,365.04 526.35,28.33 1588.2,-924.05 758.5,-1686.58 -521.9,-479.65 -384.26,-182.3 -638.76,-283.3 -376.71,-149.51 -74.11,-705.8 -787.67,-1274.67 -982.2,-783.08 -2585.61,-1296.03 -2407.56,174.38 67.22,555.03 416.06,1105.44 686.12,1414.91z"/>
   <path class="fil33" d="M14546.05 24426.67c133.46,-392.98 656.17,-778.82 882.52,-1138.25 533.61,173.9 674.26,684.63 323.05,1141.94 -464.5,604.86 -760.13,357.39 -1205.57,-3.69zm-149.49 -439.6c-41.48,-117.66 -121.47,153.59 -20.2,-147.38 44.61,-132.59 328.12,-151.22 579.84,-743.86l224.26 198.64 -526.44 621.49c-270.5,250.78 -254.06,71.98 -257.46,71.11zm285.58 -818.95l-140.29 180.89c22.87,105.17 52.04,87.81 -43.95,85.07 4.68,91.28 25.42,69.03 -67.78,60.85 0.63,92.3 19.99,67.02 -78.82,49.95l-85.63 68.85 -164.21 46.65c-16.75,18.31 32.37,190.23 -406.75,62.45l357.97 -355.27c5.95,-20.93 26.32,-19.69 39.36,-29.67 61.49,-181.26 82.96,-166.18 221.57,-318.51 13.11,-104.27 -18.26,-85.33 78.02,-76.18 -15.3,-100.48 -38.97,-81.1 59.06,-69.4l48.23 -79.82c-21.96,-109.47 -54.16,-95.92 44.65,-83.87 -22.02,-107.65 -48.95,-90.87 54.62,-73.97 -18.87,-105.95 -42.77,-86.96 61.05,-67.41 111.27,-48.11 -181.77,-125.48 142.76,-27.88 59.18,254.98 92.55,289.22 -59.64,494.51l-60.22 132.76zm-1553.31 297.69c85.02,-247.37 146.28,-256.72 322.85,-437.32 233.68,-239.03 711.97,-863.94 918.31,-1013.77 196.77,100.87 100.85,48.08 260.76,234.43 -108.62,299.03 -375.16,469.43 -600.92,717.66 -196.22,215.69 -347.04,447.98 -540.1,680.5l-360.9 -181.5zm-422.1 -544.39c308.74,-366.88 869.57,-906.29 1092.86,-1293.91l373.95 177.64c-95.63,232.64 -974.07,1211.56 -1233.4,1429.87l-233.41 -313.6zm772.76 -1210.74l-41.43 87.11c22.05,108.26 50.41,92.57 -52.36,76.23 21.32,103.23 43.66,82.03 -59.59,70.27 22.97,114.79 40.5,78.56 -87.2,78.56 -244.32,212.63 -449.79,506.27 -654.89,700.05 -168.02,-113.72 -133.41,-109.4 -242.4,-314.76 76.88,-148.98 488.28,-610.42 614.28,-751.44l70.43 -77.08c-8.41,-95.36 -32.3,-76.2 59.18,-69.45 -5.32,-92.13 -28.25,-72.19 61.26,-67.09 44.39,-35.94 53.11,-169.62 257.51,3.35l157.24 35.99c11.72,9.83 25.54,29.89 26.76,37.32 1.02,6.22 6.26,31.52 6.55,37.74 5.05,104.44 50.08,91.09 -64.08,76.52 16.34,98.52 41.52,79.67 -51.26,76.68zm-1285.46 391.41c-100.51,-674.17 35.62,-743.25 678.26,-758.82 -121.92,296.24 -383.85,671.74 -678.26,758.82zm2102.85 2205.35l17.65 136.67c54.32,168.16 409.79,450.66 593.4,515.47 683.51,241.38 1181.47,-516.42 1256.92,-770.81 106.58,-359.4 -27.1,-616.93 -207.26,-800.3 -471.49,-479.89 -437.42,-333.29 -580.6,-346.19 -626.79,-56.43 -61.87,-493.18 -830.31,-1195.8 -860.3,-786.58 -2708.46,-1146.07 -2612.68,48.37 43.07,537.38 439.31,1052.58 691.74,1352.56 923.22,1097.14 1564.58,459.49 1671.14,1060.03z"/>
   <path class="fil34" d="M14546.05 24426.67c445.44,361.08 741.07,608.55 1205.57,3.69 351.21,-457.31 210.56,-968.04 -323.05,-1141.94 -226.35,359.43 -749.06,745.27 -882.52,1138.25z"/>
   <path class="fil34" d="M13788.42 27669.35c440.1,524.24 736.8,574.6 1187.4,27.05 396.17,-481.4 207.36,-919.96 -288.58,-1112.29 -260.37,377.98 -643.5,690.05 -898.82,1085.24z"/>
   <path class="fil34" d="M13128.83 23465.81l360.9 181.5c193.06,-232.52 343.88,-464.81 540.1,-680.5 225.76,-248.23 492.3,-418.63 600.92,-717.66 -159.91,-186.35 -63.99,-133.56 -260.76,-234.43 -206.34,149.83 -684.63,774.74 -918.31,1013.77 -176.57,180.6 -237.83,189.95 -322.85,437.32z"/>
   <path class="fil34" d="M11944.87 26191.06c80.92,209.06 84.8,174.6 240.92,323.38 196.19,-147.13 1113.95,-1188.69 1219.39,-1421.64 -155.64,-92.47 -149.49,-115.01 -350.2,-185.53l-1110.11 1283.79z"/>
   <path class="fil34" d="M12386.69 26706.94l299.71 220.2c222.68,-223.31 1047.02,-1138.2 1162.46,-1375.11l-232 -262.26c-256.63,218.4 -1085.1,1156.65 -1230.17,1417.17z"/>
   <path class="fil34" d="M12706.73 22921.42l233.41 313.6c259.33,-218.31 1137.77,-1197.23 1233.4,-1429.87l-373.95 -177.64c-223.29,387.62 -784.12,927.03 -1092.86,1293.91z"/>
   <path class="fil34" d="M13085.51 21510.17l-59.18 69.45c8.69,102.55 32.39,77.08 -70.43,77.08 -126,141.02 -537.4,602.46 -614.28,751.44 108.99,205.36 74.38,201.04 242.4,314.76 205.1,-193.78 410.57,-487.42 654.89,-700.05 22,-109.32 -12.97,-90.99 87.2,-78.56 -20.35,-105.34 -44.2,-85.62 59.59,-70.27 -20.47,-102.87 -46.28,-84.51 52.36,-76.23l41.43 -87.11c-24.63,-107.18 -51.97,-90.33 51.26,-76.68l30.77 -151.58 -157.24 -35.99 -257.51 -3.35c5.52,93.22 28.88,73.77 -61.26,67.09z"/>
   <path class="fil34" d="M11636.86 25616.19l152.04 373.02c147.23,-127.68 956.29,-935.46 1016.95,-1159.14l-379.94 -215.05c-230.38,391.74 -580.77,637.71 -789.05,1001.17z"/>
   <path class="fil34" d="M12937.88 27033.09c694.13,20.23 1334.1,-836.13 1055.38,-1152.21 -101.07,-114.62 -1008.41,1075.77 -1055.38,1152.21z"/>
   <path class="fil34" d="M14598.19 22636.14c18.36,102.94 44.05,84.92 -54.62,73.97 21.25,104.49 50.37,87.56 -44.65,83.87 22.36,107.63 52.08,92.57 -48.23,79.82 15.81,98.69 38.34,78.2 -59.06,69.4 16.66,107.07 36.5,76.18 -78.02,76.18 -138.61,152.33 -160.08,137.25 -221.57,318.51l-48.13 87.83c-173.75,181.11 -155.56,43.06 -227.49,282.3l285.04 -47.64 164.21 -46.65c0,-111.83 -26.81,-86.82 85.63,-68.85l78.82 -49.95 67.78 -60.85 43.95 -85.07 140.29 -180.89 60.22 -132.76c4.52,-53.79 29.51,-212.02 25.91,-244.41 -40.24,-362.1 40.19,-103.7 -109.03,-222.22 20.57,104.03 42.79,83.31 -61.05,67.41z"/>
   <path class="fil34" d="M12194.03 22102.09c294.41,-87.08 556.34,-462.58 678.26,-758.82 -642.64,15.57 -778.77,84.65 -678.26,758.82z"/>
   <path class="fil34" d="M11535.94 25295.64c188.17,-86.88 591.52,-561.61 695.22,-756.19 -662.39,-134.27 -783.45,134.36 -695.22,756.19z"/>
   <path class="fil35" d="M13551.41 27156.07l161.73 186.91c208.09,-163.33 265.23,-262.77 424.17,-422.2 233.83,-234.53 362.29,-271.71 111.77,-531.76 -317.12,279.58 87.55,111.95 -697.67,767.05z"/>
   <path class="fil35" d="M14396.56 23987.07c3.4,0.87 -13.04,179.67 257.46,-71.11l526.44 -621.49 -224.26 -198.64c-251.72,592.64 -535.23,611.27 -579.84,743.86 -101.27,300.97 -21.28,29.72 20.2,147.38z"/>
   <path class="fil33" d="M16091.95 24641.32l-25.69 178.99c96.94,-14.3 77.59,-39.39 78.22,50.32 105.27,-23.02 88.22,-52.5 85.67,42.71 100.85,-17.21 82.2,-42.27 74.33,54.04 101.56,-14.84 83.54,-40 71.45,56.96 104.22,-16.63 87.88,-43.85 74.52,53.94l109.4 30.3c-12.58,-100.43 -40.26,-83.94 50.8,-77.78l0.88 -49.15 -49.81 -78.77c-97.76,15.76 -77.1,38.24 -70.62,-57.8 -93.03,13.99 -71.44,36.01 -74.74,-53.71 -114.6,16.32 -90.8,31.91 -35.28,-70.09l-206.71 -149.05c0,101.41 23.78,74.38 -82.42,69.09z"/>
   <path class="fil33" d="M17004.95 24778.52c-129.7,-96.53 -188.81,-151.36 -287.91,-157.63 22.44,201.39 -170.96,57.99 156.07,295.42 91.36,66.34 135.65,99.88 236.09,169.18 121.03,-187.32 108.33,-148.76 -104.25,-306.97z"/>
   <path class="fil34" d="M16717.04 24620.89c99.1,6.27 158.21,61.1 287.91,157.63 212.58,158.21 225.28,119.65 104.25,306.97 -100.44,-69.3 -144.73,-102.84 -236.09,-169.18 -327.03,-237.43 -133.63,-94.03 -156.07,-295.42zm529.43 353.7c-81.86,-160.79 -312.11,-342.55 -499.54,-431.43 -77.49,103.52 -66.97,79.92 -148.9,211.59 132.32,164.23 299.41,265.81 510.93,383.05 109.49,-97.45 41.25,-20.04 137.51,-163.21z"/>
   <path class="fil36" d="M14598.19 22636.14c-103.57,-16.9 -76.64,-33.68 -54.62,73.97 -98.81,-12.05 -66.61,-25.6 -44.65,83.87l-48.23 79.82c-98.03,-11.7 -74.36,-31.08 -59.06,69.4 -96.28,-9.15 -64.91,-28.09 -78.02,76.18 114.52,0 94.68,30.89 78.02,-76.18 97.4,8.8 74.87,29.29 59.06,-69.4 100.31,12.75 70.59,27.81 48.23,-79.82 95.02,3.69 65.9,20.62 44.65,-83.87 98.67,10.95 72.98,28.97 54.62,-73.97 103.84,15.9 81.62,36.62 61.05,-67.41 149.22,118.52 68.79,-139.88 109.03,222.22 3.6,32.39 -21.39,190.62 -25.91,244.41l-60.22 132.76 -140.29 180.89 -43.95 85.07 -67.78 60.85 -78.82 49.95c-112.44,-17.97 -85.63,-42.98 -85.63,68.85l85.63 -68.85c98.81,17.07 79.45,42.35 78.82,-49.95 93.2,8.18 72.46,30.43 67.78,-60.85 95.99,2.74 66.82,20.1 43.95,-85.07l140.29 -180.89 60.22 -132.76c152.19,-205.29 118.82,-239.53 59.64,-494.51 -324.53,-97.6 -31.49,-20.23 -142.76,27.88 -103.82,-19.55 -79.92,-38.54 -61.05,67.41z"/>
   <path class="fil37" d="M16066.26 24820.31c-18.77,104.03 -32.76,73.68 78.22,50.32 0.63,113.55 -22.15,89.87 85.67,42.71 -2.31,92.55 -22.34,68.92 74.33,54.04 -7.62,97.23 -27.87,74.21 71.45,56.96 -12.07,103.87 -31.16,79.12 74.52,53.94 27.91,81.93 141.34,238.37 109.4,30.3 115.13,21.81 86.35,37.89 50.8,-77.78l0.88 -49.15c36.74,-113.69 64.45,-96.28 -49.81,-78.77 11.27,-96.31 29.77,-71.71 -70.62,-57.8 6.8,-93.56 24.9,-67.92 -74.74,-53.71l-35.28 -70.09c-55.52,102 -79.32,86.41 35.28,70.09 3.3,89.72 -18.29,67.7 74.74,53.71 -6.48,96.04 -27.14,73.56 70.62,57.8l49.81 78.77 -0.88 49.15c-91.06,-6.16 -63.38,-22.65 -50.8,77.78l-109.4 -30.3c13.36,-97.79 29.7,-70.57 -74.52,-53.94 12.09,-96.96 30.11,-71.8 -71.45,-56.96 7.87,-96.31 26.52,-71.25 -74.33,-54.04 2.55,-95.21 19.6,-65.73 -85.67,-42.71 -0.63,-89.71 18.72,-64.62 -78.22,-50.32l25.69 -178.99c106.2,5.29 82.42,32.32 82.42,-69.09 -125.37,-19.52 -105.71,-50.44 -82.42,69.09 -15.42,10.88 -31.95,32.54 -36.47,43.27 -3.86,9.18 -15.86,35.19 -18.89,44.39 -38.59,116.08 -104.25,112.31 29.67,91.33z"/>
   <path class="fil36" d="M13085.51 21510.17c-91.48,-6.75 -67.59,-25.91 -59.18,69.45l-70.43 77.08c102.82,0 79.12,25.47 70.43,-77.08l59.18 -69.45c90.14,6.68 66.78,26.13 61.26,-67.09l257.51 3.35 157.24 35.99 -30.77 151.58c-103.23,-13.65 -75.89,-30.5 -51.26,76.68l-41.43 87.11c-98.64,-8.28 -72.83,-26.64 -52.36,76.23 -103.79,-15.35 -79.94,-35.07 -59.59,70.27 -100.17,-12.43 -65.2,-30.76 -87.2,78.56 127.7,0 110.17,36.23 87.2,-78.56 103.25,11.76 80.91,32.96 59.59,-70.27 102.77,16.34 74.41,32.03 52.36,-76.23l41.43 -87.11c92.78,2.99 67.6,21.84 51.26,-76.68 114.16,14.57 69.13,27.92 64.08,-76.52 -0.29,-6.22 -5.53,-31.52 -6.55,-37.74 -1.22,-7.43 -15.04,-27.49 -26.76,-37.32l-157.24 -35.99c-204.4,-172.97 -213.12,-39.29 -257.51,-3.35 -89.51,-5.1 -66.58,-25.04 -61.26,67.09z"/>
   <path class="fil37" d="M14101.46 23660.38l-285.04 47.64c71.93,-239.24 53.74,-101.19 227.49,-282.3l48.13 -87.83c-13.04,9.98 -33.41,8.74 -39.36,29.67l-357.97 355.27c439.12,127.78 390,-44.14 406.75,-62.45z"/>
  </g>
 </g>
</svg>
